<?xml version="1.0" encoding="utf-8"?>
<!-- Generator: Adobe Illustrator 19.0.0, SVG Export Plug-In . SVG Version: 6.00 Build 0)  -->
<svg version="1.1" id="layer" xmlns="http://www.w3.org/2000/svg" xmlns:xlink="http://www.w3.org/1999/xlink" x="0px" y="0px"
	 viewBox="-153 -46 652 652" style="enable-background:new -153 -46 652 652;" xml:space="preserve">
<style type="text/css">
	.st0{fill:#37484E;}
	.st1{fill:#FFFFFF;}
	.st2{fill:#0084C9;}
</style>
<rect x="-16.5" y="271.5" class="st0" width="447.9" height="9"/>
<path class="st0" d="M442.5,249.4c-14.6,0-26.5,11.9-26.5,26.5c0,14.6,11.8,26.5,26.5,26.5c14.6,0,26.5-11.8,26.5-26.5
	C469,261.3,457.1,249.4,442.5,249.4"/>
<path class="st0" d="M-68.8,213.2c-34.4,0-62.2,27.9-62.2,62.2c0,34.4,27.9,62.2,62.2,62.2c34.4,0,62.2-27.9,62.2-62.2
	C-6.6,241.1-34.4,213.2-68.8,213.2"/>
<path class="st1" d="M-30.2,297.8c-0.1,0.1-15.3,6.5-25.2,0.5c-4.6-2.8-7.3-8.1-8-15.9l0,0.3l-0.1-6.2c0-3.9,1.4-15.2,7.4-19.7
	c3.2-2.3,7.4-2.7,12.9-1l-0.6-0.2c1.4,0.7,8.3,4.6,5.3,12.3c-2.8,7.1-16,6.5-25.6,6l-2.6-0.1l-0.4,8.5l2.5,0.1
	c12.2,0.6,28.9,1.4,33.9-11.4c4.8-12.4-4.1-20.5-9.5-23.1l-0.3-0.1l-0.3-0.1c-8.1-2.5-15-1.7-20.4,2.3
	c-10.7,7.9-10.8,25.8-10.8,26.5l0.1,6.2v0.2l0,0.1c0.9,10.6,5,18.1,12,22.4c13.5,8.2,28.7,1.1,29.5,0.8"/>
<path class="st1" d="M-105.2,257.9c0.2,0,15.5-6.5,25.4-0.5c4.6,2.8,7.3,8.2,8,15.9l0-0.3l0.1,6.2c0,3.9-1.4,15.2-7.4,19.7
	c-3.2,2.3-7.4,2.7-12.9,1l0.6,0.2c-1.4-0.7-8.3-4.6-5.3-12.4c2.8-7.1,16-6.5,25.6-6l2.6,0.1l0.4-8.5l-2.5-0.1
	c-12.2-0.6-28.9-1.4-33.9,11.4c-4.8,12.4,4.1,20.5,9.5,23.1l0.3,0.2l0.3,0.1c8.1,2.5,15,1.7,20.5-2.3c10.7-7.9,10.8-25.8,10.8-26.5
	l-0.1-6.2v-0.2l0-0.2c-1-10.6-5-18.1-12-22.4c-13.5-8.2-28.9-1.1-29.7-0.8"/>
<path class="st2" d="M350.1,309.9v-68.8c0-2.3,1.9-3,1.9-3h7c4.1,0,4.2,6.4,4.2,6.4l10.2,88.2h33l-13.1-106.2c0,0-0.9-12.9-9.5-13.1
	h-38.1c0,0-6.7-0.2-9.7,9.5h-0.1c-2.6-9.8-9.6-9.5-9.6-9.5h-38.1c-8.7,0.2-9.5,13.1-9.5,13.1l-13.1,106.2h33l10.1-88.2
	c0,0,0.1-6.4,4.2-6.4h7c0,0,1.9,0.6,1.9,3v68.8"/>
<path class="st2" d="M261.4,237.3h-37.7v17.8l37.7,0.1v25.3h-37.7v27.4h37.7v24.7h-61.5c0,0-8.3,0.4-8.3-10.2v-98.9v0
	c0-10.6,8.3-10.2,8.3-10.2h61.5"/>
<path class="st2" d="M186,283l-9.2,30.4c-6.4,21.6-18.8,19.2-18.8,19.2h-54.4v-26.1h33.7c0,0,7.3,0.3,9.9-6.5
	c1.5-4.2,4.6-14.5,4.6-14.5s1.5-5.2-4.9-5h-27.2c0,0-21.6,0.9-14.6-27.9l8.1-26.2c4.8-13.8,13.2-13.2,13.2-13.2h54.7V238h-34.1
	c0,0-6-0.4-6.9,3.3c-1,4.3-1.6,8.7-1.6,8.7s-1.5,5.2,4.9,5h28C171.7,255,193,254.2,186,283"/>
<path class="st2" d="M66.7,271.4H48.3l10.6-30.5c0,0,1-2.6,2.6-3.2c2.6-0.9,5.2-0.4,5.2,6 M48,213.2c0,0-12.6-0.7-18.3,16.6
	l-37.4,103h30.6c4.6,0,5.3-3.6,5.3-3.6s6.9-21.9,9.3-27.9c2.1-5.4,6.7-4.6,6.7-4.6h22.5v36.1h29.8V213.2H48z"/>
</svg>
