<?xml version="1.0" encoding="UTF-8" standalone="no"?>
<!-- Created with Inkscape (http://www.inkscape.org/) -->
<!-- http://www.woehner.com/en/service/product-manual/ -->
<svg
   xmlns:svg="http://www.w3.org/2000/svg"
   xmlns="http://www.w3.org/2000/svg"
   version="1.0"
   width="299.99"
   height="78.013">
  <path
     d="M 79.595,0.0002 C 76.812,0.0002 74.582,2.2413 74.582,5.0242 C 74.582,7.8049 76.812,10.046 79.595,10.046 C 82.378,10.046 84.608,7.8049 84.608,5.0242 C 84.608,2.2413 82.378,0.0002 79.595,0.0002 M 63.918,0.0002 C 61.135,0.0002 58.883,2.2413 58.883,5.0242 C 58.883,7.8049 61.135,10.046 63.918,10.046 C 66.7,10.046 68.931,7.8049 68.931,5.0242 C 68.931,2.2413 66.7,0.0002 63.918,0.0002 M 79.064,30.431 C 79.064,37.562 76.515,41.513 71.714,41.513 C 67.848,41.513 64.236,39.045 64.236,30.643 C 64.236,23.302 67.274,19.841 71.714,19.841 C 76.876,19.841 79.064,24.077 79.064,30.431 M 90.004,30.713 C 90.004,18.216 79.701,13.772 71.714,13.772 C 62.112,13.772 53.296,19.559 53.296,30.643 C 53.296,40.88 61.05,47.587 71.714,47.587 C 78.915,47.587 90.004,43.633 90.004,30.713"
     style="fill:#1475c5;fill-opacity:1;fill-rule:nonzero;stroke:none" />
  <path
     d="M 61.262,72.626 L 56.504,72.626 L 58.267,67.719 C 58.501,67.018 58.692,66.359 58.841,65.724 L 58.904,65.724 C 59.053,66.359 59.265,67.018 59.499,67.74 L 61.262,72.626 z M 65.66,77.796 L 60.306,63.007 L 57.651,63.007 L 52.34,77.796 L 54.762,77.796 L 55.888,74.531 L 61.878,74.531 L 63.004,77.796 M 77.194,77.775 L 77.194,75.693 L 72.117,75.693 L 72.117,62.988 L 69.717,62.988 L 69.717,77.775 M 88.623,77.775 L 88.623,75.693 L 83.546,75.693 L 83.546,62.988 L 81.146,62.988 L 81.146,77.775 M 100.58,77.775 L 100.58,75.738 L 95.166,75.738 L 95.166,71.137 L 100.33,71.137 L 100.33,69.187 L 95.166,69.187 L 95.166,64.98 L 100.58,64.98 L 100.58,62.988 L 92.787,62.988 L 92.787,77.775 M 114.11,73.369 C 114.11,68.704 107.57,69.777 107.57,66.818 C 107.57,65.592 108.42,64.762 110.27,64.762 C 111.16,64.762 112.03,64.912 112.82,65.176 L 113.05,63.075 C 112.25,62.896 111.23,62.788 110.4,62.788 C 106.98,62.788 105.04,64.562 105.04,67.103 C 105.04,71.88 111.52,70.565 111.52,73.677 C 111.52,75.296 110.18,75.931 108.63,75.931 C 107.51,75.931 106.45,75.691 105.49,75.319 L 105.21,77.597 C 106.17,77.86 107.27,78.013 108.55,78.013 C 111.91,78.013 114.11,76.065 114.11,73.369 M 142.79,77.775 L 140.54,62.988 L 137.67,62.988 L 134.76,71.619 C 134.42,72.626 134.21,73.461 133.93,74.555 L 133.91,74.555 C 133.66,73.439 133.34,72.362 133.08,71.532 L 130.24,62.988 L 127.39,62.988 L 125.18,77.775 L 127.6,77.775 L 128.56,70.13 C 128.71,68.728 128.86,67.566 128.94,66.295 L 128.98,66.295 C 129.22,67.413 129.52,68.553 129.94,69.779 L 132.57,77.775 L 135.06,77.775 L 137.84,69.187 C 138.23,68.069 138.44,67.13 138.61,66.295 L 138.65,66.295 C 138.76,67.26 138.88,68.42 139.12,69.909 L 140.26,77.775 M 147.57,77.775 L 149.95,77.775 L 149.95,63.013 L 147.57,63.013 L 147.57,77.775 z M 164.82,65.004 L 164.82,62.988 L 154.31,62.988 L 154.31,65.004 L 158.36,65.004 L 158.36,77.777 L 160.74,77.777 L 160.74,65.004 M 184.22,73.369 C 184.22,68.704 177.67,69.777 177.67,66.818 C 177.67,65.592 178.52,64.762 180.37,64.762 C 181.26,64.762 182.13,64.912 182.92,65.176 L 183.15,63.075 C 182.35,62.896 181.33,62.788 180.5,62.788 C 177.08,62.788 175.15,64.562 175.15,67.103 C 175.15,71.88 181.63,70.565 181.63,73.677 C 181.63,75.296 180.29,75.931 178.74,75.931 C 177.63,75.931 176.55,75.691 175.59,75.319 L 175.32,77.597 C 176.27,77.86 177.38,78.013 178.65,78.013 C 182.01,78.013 184.22,76.065 184.22,73.369 M 195.9,67.553 C 195.9,69.284 194.58,70.378 192.59,70.4 C 192.25,70.4 191.86,70.357 191.55,70.312 L 191.55,64.904 C 191.93,64.857 192.31,64.857 192.76,64.857 C 194.92,64.857 195.9,65.866 195.9,67.553 z M 198.36,67.355 C 198.36,64.619 196.45,62.909 192.95,62.909 C 191.57,62.909 190.29,62.952 189.15,62.996 L 189.15,77.784 L 191.55,77.784 L 191.55,72.326 C 191.91,72.373 192.31,72.373 192.63,72.373 C 196.07,72.373 198.36,70.225 198.36,67.355 M 208.65,72.626 L 203.89,72.626 L 205.65,67.719 C 205.88,67.018 206.08,66.359 206.22,65.724 L 206.29,65.724 C 206.44,66.359 206.65,67.018 206.88,67.74 L 208.65,72.626 z M 213.04,77.796 L 207.69,63.007 L 205.03,63.007 L 199.72,77.796 L 202.15,77.796 L 203.27,74.531 L 209.26,74.531 L 210.39,77.796 M 229.08,77.775 L 229.08,62.988 L 226.77,62.988 L 226.77,67.368 C 226.77,69.537 226.83,72.713 226.92,74.402 C 226.36,73.327 225.77,72.146 225.11,71.05 L 220.22,62.988 L 217.1,62.988 L 217.1,77.775 L 219.42,77.775 L 219.42,72.802 C 219.42,70.699 219.37,67.697 219.29,66.251 C 219.76,67.239 220.29,68.29 220.92,69.363 L 225.98,77.775 M 247.14,77.775 L 247.14,62.988 L 244.82,62.988 L 244.82,67.368 C 244.82,69.537 244.89,72.713 244.97,74.402 C 244.42,73.327 243.82,72.146 243.17,71.05 L 238.28,62.988 L 235.16,62.988 L 235.16,77.775 L 237.47,77.775 L 237.47,72.802 C 237.47,70.699 237.43,67.697 237.35,66.251 C 237.81,67.239 238.34,68.29 238.98,69.363 L 244.06,77.775 M 264.94,72.093 L 264.94,63.001 L 262.6,63.001 L 262.6,72.269 C 262.6,75.026 261.5,76.035 259.1,76.035 C 256.36,76.035 255.7,74.546 255.7,72.573 L 255.7,63.001 L 253.3,63.001 L 253.3,72.749 C 253.3,75.468 254.3,78.007 258.93,78.007 C 262.82,78.007 264.94,76.035 264.94,72.093 M 282.72,77.775 L 282.72,62.988 L 280.41,62.988 L 280.41,67.368 C 280.41,69.537 280.47,72.713 280.55,74.402 C 280,73.327 279.41,72.146 278.75,71.05 L 273.86,62.988 L 270.74,62.988 L 270.74,77.775 L 273.05,77.775 L 273.05,72.802 C 273.05,70.699 273.01,67.697 272.93,66.251 C 273.39,67.239 273.9,68.29 274.56,69.363 L 279.64,77.775 M 299.99,77.112 L 299.99,70.168 L 297.61,70.168 L 297.61,75.536 C 296.93,75.755 296.19,75.887 295.32,75.887 C 292.15,75.887 290.2,73.892 290.2,70.474 C 290.2,66.818 292.53,64.889 295.53,64.889 C 296.91,64.889 298.16,65.152 299.33,65.611 L 299.84,63.421 C 298.61,63.049 297.19,62.807 295.7,62.807 C 290.71,62.807 287.63,66.138 287.63,70.716 C 287.63,75.273 290.45,78.011 295.04,78.011 C 296.72,78.011 298.53,77.679 299.99,77.112 M 185.81,27.351 C 186.19,23.243 188.57,20.869 192.23,20.869 C 195.82,20.869 198.26,23.307 198.64,27.351 L 185.81,27.351 M 204.82,43.196 C 199.98,46.091 195.22,46.091 193.12,46.091 C 182.73,46.091 176,40.058 176,30.816 C 176,21.766 182.47,15.348 191.59,15.348 C 200.19,15.348 207.31,21.445 206.86,32.229 L 185.62,32.229 C 185.94,37.492 189.53,40.572 195.37,40.572 C 198.09,40.572 200.11,40.169 202.83,38.641 M 25.149,29.979 L 32.542,46.089 L 36.96,46.089 L 50.237,15.925 L 41.4,15.925 L 34.517,32.226 L 27.974,15.925 L 22.324,15.925 L 15.717,32.226 L 8.8345,15.925 L -0.002576,15.925 L 13.338,46.089 L 17.693,46.089 L 25.149,29.979 M 108.02,2.4166 L 98.714,2.4166 L 98.714,45.524 L 108.02,45.524 L 108.02,26.655 C 110.21,23.511 112.05,22.162 114.24,22.162 C 117.13,22.162 119.06,24.217 119.06,28.644 L 119.06,45.524 L 128.37,45.524 L 128.37,26.655 C 128.37,18.633 122.91,15.359 117.51,15.359 C 113.86,15.359 110.84,16.899 108.15,20.301 L 108.02,20.301 L 108.02,2.4166 M 147.85,15.932 L 138.54,15.932 L 138.54,45.518 L 147.85,45.518 L 147.85,26.458 C 150.29,22.799 152.01,21.581 154.33,21.581 C 156.96,21.581 158.96,23.314 158.96,27.486 L 158.96,45.518 L 168.26,45.518 L 168.26,26.716 C 168.26,17.988 162.1,15.356 157.47,15.356 C 153.69,15.356 150.8,16.766 147.85,20.168 L 147.85,15.932 M 224.05,15.932 L 214.74,15.932 L 214.74,45.518 L 224.05,45.518 L 224.05,32.749 C 224.07,31.087 227.11,24.077 231.69,24.084 C 233.16,24.087 234.78,24.724 237.2,26.264 L 239.77,18.051 C 237.07,16.06 235.48,15.356 233.61,15.356 C 230.02,15.356 226.94,18.243 224.17,24.406 L 224.05,24.406 L 224.05,15.932"
     style="fill:#231f20;fill-opacity:1;fill-rule:evenodd;stroke:none" />
</svg>
