<svg xmlns="http://www.w3.org/2000/svg" viewBox="0 0 339.61 88.01"><defs><style>.a,.g{fill:#fff;}.b{fill:#de78ae;}.b,.c,.d,.e,.f,.g{fill-rule:evenodd;}.c{fill:#f39200;}.d{fill:#fdc300;}.e{fill:#e30613;}.f{fill:#ffed00;}.h{fill:#be1622;}</style></defs><title>zanardo-logo-white</title><path class="a" d="M87.94,70.35v-9.5l15.58-31.7H89.19V19.4h27.53v8.86L101.07,59.93h16.37V70.35Zm47.79-19h6.84l-3.41-22.24-3.43,22.24ZM121,70.35l11.11-51h14.16l11,51H145.35l-1.49-9.77H134.5L133,70.35Zm41.83,0v-51h12.41l9.9,31.43q-.61-7.93-.88-13.7c-.19-3.83-.28-7.08-.28-9.72v-8h10.61v51H182.16L172.19,38q.66,6.32,1,12.25t.35,11.53v8.6Zm52.06-19h6.84l-3.41-22.24-3.43,22.24Zm-14.72,19,11.11-51h14.16l11,51H224.51L223,60.59h-9.36l-1.48,9.77Zm53.6-29.75.78,0,.71,0q3.71,0,5.25-1.49c1-1,1.54-2.67,1.54-5,0-2.19-.51-3.74-1.54-4.65s-2.78-1.38-5.25-1.38l-.71,0-.78,0V40.61ZM242,70.35v-51h13.4a52.86,52.86,0,0,1,9.55.61,10.39,10.39,0,0,1,8.09,6.5,16.42,16.42,0,0,1,1.07,6.22,16,16,0,0,1-1.54,7.37A12.27,12.27,0,0,1,267.8,45q5.52,2.44,5.81,11.61v.17q0,.95.07,2.78.14,8.61,2.85,10.78H262.61a20.88,20.88,0,0,1-.69-3.32,32.4,32.4,0,0,1-.21-3.73c0-.81,0-1.81.07-3s.07-1.92.07-2.27c0-3.12-.41-5.24-1.22-6.39S258.33,50,256.22,50h-2.45V70.35ZM294.58,28.9V61.06a3.73,3.73,0,0,0,.69.07h1a8.48,8.48,0,0,0,3.2-.53,4.63,4.63,0,0,0,2.07-1.68,8.13,8.13,0,0,0,.9-3.58q.25-2.64.25-10.39V42.63c0-4.24-.08-7.1-.23-8.58a6.57,6.57,0,0,0-.87-3.07,4.12,4.12,0,0,0-2-1.62,9.47,9.47,0,0,0-3.42-.53h-1l-.61.06Zm-12,41.46v-51h13.13q7.21,0,10.68,1.24a11,11,0,0,1,5.52,4.25A15.65,15.65,0,0,1,314.18,31a94.74,94.74,0,0,1,.67,13.91,94.44,94.44,0,0,1-.67,13.9,16,16,0,0,1-2.25,6.09,11,11,0,0,1-5.52,4.25q-3.47,1.24-10.68,1.24Zm61.34-20.88V40.28q0-8.47-1.07-10.47a4,4,0,0,0-3.88-2,3.9,3.9,0,0,0-3.8,2.06q-1.07,2-1.06,10.41v9.19q0,8.27,1.06,10.37a4.61,4.61,0,0,0,7.7,0q1.07-2,1.06-10.41Zm-22-4.6a96.7,96.7,0,0,1,.67-13.43,17.23,17.23,0,0,1,2.18-6.62,13.48,13.48,0,0,1,5.72-5,20.08,20.08,0,0,1,8.5-1.64,19.84,19.84,0,0,1,8.48,1.64,13.55,13.55,0,0,1,5.67,5,16.81,16.81,0,0,1,2.25,6.65,96.42,96.42,0,0,1,.66,13.39,96.58,96.58,0,0,1-.66,13.38,16.8,16.8,0,0,1-2.25,6.66,13.47,13.47,0,0,1-5.67,5,22.69,22.69,0,0,1-17,0,13.67,13.67,0,0,1-5.72-5,17.24,17.24,0,0,1-2.18-6.62A96.67,96.67,0,0,1,322,44.88Z" transform="translate(-16.49 -18.18)"/><polygon class="b" points="48.83 2.55 47.49 4.59 41.99 12.95 26.25 2.55 48.83 2.55"/><path class="c" d="M50,60.28l-11.8-7.79-19.65-13v-10c0-.15,0-.3,0-.44v0c0-.07,0-.13,0-.2v0l0-.19v0c0-.07,0-.14,0-.2h0c0-.07,0-.13,0-.2v0l0-.19h0l0-.19v0l0-.17v0l0-.16v-.05l0-.16v0l0-.16,0-.05.06-.17v0l.06-.17,0-.06.06-.17v0l.05-.13,0-.1,0-.11,0-.08,0-.1,0-.1,0-.1.06-.11,0-.05.07-.13,0-.06.07-.12,0-.06.07-.11.07-.11.05-.08,0,0,.25-.35,0,0,.08-.1,0-.06q.17-.22.36-.44h0l.06-.07,28,18.52,5.38,3.55-5.85,8.88h5.38Z" transform="translate(-16.49 -18.18)"/><polygon class="d" points="23.19 52.63 23.12 52.59 11.09 44.64 2.09 38.69 2.09 21.32 21.74 34.31 33.54 42.1 27.13 51.82 26.58 52.63 23.19 52.63"/><path class="e" d="M58.93,38.61H53.55l4.93-7.48L42.74,20.73H29.92l-7.63,1.61-.05,0,0,0h0l0,0h0l0,0-.14.1h0l-.45.37,0,0c-.21.18-.4.38-.59.58l0,0-.07.08h0l28,18.52,5.38,3.55Z" transform="translate(-16.49 -18.18)"/><polygon class="f" points="24.32 53.39 24.19 53.29 2.09 38.69 2.08 53.39 24.32 53.39"/><path class="g" d="M65.7,22.78H27.32a6.73,6.73,0,0,0-6.73,6.73V71.57H16.49V29.5A10.82,10.82,0,0,1,27.32,18.68H68.38Z" transform="translate(-16.49 -18.18)"/><path class="a" d="M23.72,71.57,52.5,27.91h-11q-6.75,0-9.39,2.92c-1.79,1.94-2.68,5.37-2.68,10.27v2.16H27.7v-17H60L31.19,70H56.75q6.78,0,10.06-3.47t3.28-10.65V54.76h1.5V71.57Z" transform="translate(-16.49 -18.18)"/><polygon class="e" points="17.19 69.47 39.92 34.99 39.92 34.99 34.54 34.99 45.07 19.01 45.07 19.01 39.69 19.01 51.89 0.5 57.27 0.5 46.74 16.48 52.12 16.48 41.59 32.45 46.97 32.45 17.29 69.47 17.19 69.47"/><path class="a" d="M92.76,98.73l-.88,1.66V106H89V87.78h2.86v7.93l3.74-7.93h2.86l-4,8.11,4,10.09H95.54Z" transform="translate(-16.49 -18.18)"/><path class="a" d="M106,95.46h3.93v2.6H106v5.33H111V106h-7.8V87.78H111v2.6H106Z" transform="translate(-16.49 -18.18)"/><path class="a" d="M119,95.46h3.93v2.6H119v5.33h4.94V106h-7.8V87.78h7.8v2.6H119Z" transform="translate(-16.49 -18.18)"/><path class="a" d="M137.53,92.28v2.37c0,2.91-1.4,4.5-4.26,4.5h-1.35V106h-2.86V87.78h4.21C136.13,87.78,137.53,89.37,137.53,92.28Zm-5.62-1.9v6.16h1.35c.91,0,1.4-.42,1.4-1.72V92.1c0-1.3-.49-1.72-1.4-1.72Z" transform="translate(-16.49 -18.18)"/><path class="a" d="M152.51,95.46h3.93v2.6h-3.93v5.33h4.94V106h-7.8V87.78h7.8v2.6h-4.94Z" transform="translate(-16.49 -18.18)"/><path class="a" d="M165.14,92.8V106h-2.57V87.78h3.59l2.94,10.89V87.78h2.55V106h-2.94Z" transform="translate(-16.49 -18.18)"/><path class="a" d="M179.94,95.46h3.93v2.6h-3.93v5.33h4.94V106h-7.8V87.78h7.8v2.6h-4.94Z" transform="translate(-16.49 -18.18)"/><path class="a" d="M196,106a5.59,5.59,0,0,1-.26-2.24v-2.86c0-1.69-.57-2.31-1.87-2.31h-1V106H190V87.78h4.32c3,0,4.24,1.38,4.24,4.19V93.4c0,1.87-.6,3.09-1.87,3.69,1.43.6,1.9,2,1.9,3.87v2.81a5.36,5.36,0,0,0,.31,2.21Zm-3.12-15.6V96H194c1.07,0,1.72-.47,1.72-1.92V92.26c0-1.3-.44-1.87-1.46-1.87Z" transform="translate(-16.49 -18.18)"/><path class="a" d="M208.15,95.85h4v5.77c0,2.91-1.46,4.58-4.26,4.58s-4.26-1.66-4.26-4.58V92.15c0-2.91,1.46-4.58,4.26-4.58s4.26,1.66,4.26,4.58v1.77h-2.7V92c0-1.3-.57-1.79-1.48-1.79s-1.48.49-1.48,1.79v9.83c0,1.3.57,1.77,1.48,1.77s1.48-.47,1.48-1.77V98.45h-1.3Z" transform="translate(-16.49 -18.18)"/><path class="a" d="M219.66,100l-3.61-12.17h3l2.18,8.29,2.18-8.29h2.73L222.52,100v6h-2.86Z" transform="translate(-16.49 -18.18)"/><path class="h" d="M247.33,106h-2.89l-.49-3.3h-3.51l-.49,3.3h-2.63l2.91-18.2h4.19Zm-6.53-5.77h2.76L242.18,91Z" transform="translate(-16.49 -18.18)"/><path class="h" d="M252,87.78h2.86v15.6h4.71V106H252Z" transform="translate(-16.49 -18.18)"/><path class="h" d="M264.23,87.78h2.86V106h-2.86Z" transform="translate(-16.49 -18.18)"/><path class="h" d="M276.86,102.63,279,87.78h2.63L278.87,106H274.6l-2.81-18.2h2.89Z" transform="translate(-16.49 -18.18)"/><path class="h" d="M289.24,95.46h3.93v2.6h-3.93v5.33h4.94V106h-7.8V87.78h7.8v2.6h-4.94Z" transform="translate(-16.49 -18.18)"/></svg>