<?xml version="1.0" encoding="UTF-8" standalone="no"?>
<!-- Generator: Adobe Illustrator 19.0.0, SVG Export Plug-In . SVG Version: 6.00 Build 0)  -->

<svg
   version="1.1"
   id="layer"
   x="0px"
   y="0px"
   viewBox="-153 -46 600 124.40392"
   xml:space="preserve"
   sodipodi:docname="asem.svg"
   width="600"
   height="124.40392"
   inkscape:version="1.2.1 (9c6d41e4, 2022-07-14)"
   xmlns:inkscape="http://www.inkscape.org/namespaces/inkscape"
   xmlns:sodipodi="http://sodipodi.sourceforge.net/DTD/sodipodi-0.dtd"
   xmlns="http://www.w3.org/2000/svg"
   xmlns:svg="http://www.w3.org/2000/svg"><defs
   id="defs179" /><sodipodi:namedview
   id="namedview177"
   pagecolor="#ffffff"
   bordercolor="#000000"
   borderopacity="0.25"
   inkscape:showpageshadow="2"
   inkscape:pageopacity="0.0"
   inkscape:pagecheckerboard="0"
   inkscape:deskcolor="#d1d1d1"
   showgrid="false"
   inkscape:zoom="0.33106124"
   inkscape:cx="502.9281"
   inkscape:cy="306.5898"
   inkscape:window-width="1309"
   inkscape:window-height="925"
   inkscape:window-x="0"
   inkscape:window-y="25"
   inkscape:window-maximized="0"
   inkscape:current-layer="layer" />
	<style
   type="text/css"
   id="style156">
		.st0 {
			fill: #37484E;
		}

		.st1 {
			fill: #FFFFFF;
		}

		.st2 {
			fill: #0084C9;
		}
	</style>
	
	
	
	
	
	
	
	
	
<rect
   x="-38.499977"
   y="12.303927"
   class="st0"
   width="447.90005"
   height="9"
   id="rect158"
   style="fill:#37484e;stroke-width:1.00002"
   inkscape:transform-center-x="-38.450054"
   inkscape:transform-center-y="-2.4186298" /><path
   class="st0"
   d="m 420.50004,-9.7960755 c -14.60004,0 -26.50008,11.9 -26.50008,26.4999995 0,14.6 11.80009,26.5 26.50008,26.5 14.59993,0 26.49996,-11.8 26.49996,-26.5 0,-14.5999995 -11.90003,-26.4999995 -26.49996,-26.4999995"
   id="path160"
   style="fill:#37484e;stroke-width:1.00002"
   inkscape:transform-center-x="-273.49988"
   inkscape:transform-center-y="-2.5186331" /><path
   class="st0"
   d="m -90.800009,-45.996077 c -34.399951,0 -62.199991,27.900004 -62.199991,62.200001 0,34.4 27.9,62.2 62.199991,62.2 34.400005,0 62.200009,-27.9 62.200009,-62.2 0,-34.299997 -27.800004,-62.200001 -62.200009,-62.200001"
   id="path162"
   style="fill:#37484e;stroke-width:1.00002"
   inkscape:transform-center-x="237.80004"
   inkscape:transform-center-y="-3.0186336" /><path
   class="st1"
   d="m -52.200004,38.603924 c -0.09997,0.1 -15.300001,6.5 -25.200001,0.5 -4.599996,-2.8 -7.299996,-8.1 -8.000004,-15.9 v 0.3 l -0.09997,-6.2 c 0,-3.9 1.400004,-15.1999995 7.400004,-19.6999995 3.199993,-2.3 7.399993,-2.7 12.9,-1 l -0.6,-0.2 c 1.399993,0.7 8.299993,4.6 5.299993,12.3 -2.799997,7.0999995 -15.999997,6.4999995 -25.599997,5.9999995 l -2.600004,-0.1 -0.399996,8.5 2.499996,0.1 c 12.200004,0.6 28.900008,1.4 33.900001,-11.4 4.8,-12.39999952 -4.099993,-20.4999995 -9.499993,-23.1 l -0.3,-0.1 -0.3,-0.1 c -8.1,-2.499997 -15,-1.699997 -20.4,2.3000005 -10.700004,7.9 -10.8,25.7999995 -10.8,26.4999995 l 0.09997,6.2 v 0.2 0.1 c 0.9,10.6 5.000004,18.1 12,22.4 13.5,8.2 28.700004,1.1 29.499997,0.8"
   id="path164"
   style="fill:#ffffff;stroke-width:1.00002"
   inkscape:transform-center-x="219.66319"
   inkscape:transform-center-y="-0.61225281" /><path
   class="st1"
   d="m -127.2,-1.2960755 c 0.20004,0 15.50004,-6.5 25.4,-0.5 4.599995,2.8 7.299995,8.2 7.999991,15.8999995 v -0.3 l 0.09998,6.2 c 0,3.9 -1.400004,15.2 -7.400001,19.7 -3.2,2.3 -7.40001,2.7 -12.89997,1 l 0.6,0.2 c -1.40004,-0.7 -8.30004,-4.6 -5.30004,-12.4 2.80008,-7.1 16.00002,-6.5 25.600011,-6 l 2.599992,0.1 0.400008,-8.5 -2.500008,-0.1 c -12.199993,-0.6 -28.899963,-1.4 -33.900003,11.4 -4.8,12.4 4.10004,20.5 9.50004,23.1 l 0.3,0.2 0.3,0.1 c 8.1,2.5 14.99997,1.7 20.499963,-2.3 10.700004,-7.9 10.8,-25.8 10.8,-26.5 l -0.09998,-6.2 v -0.2 -0.2 c -0.999996,-10.5999995 -5.000004,-18.0999995 -12,-22.3999995 -13.499983,-8.1999975 -28.899943,-1.1000005 -29.699983,-0.8"
   id="path166"
   style="fill:#ffffff;stroke-width:1.00002"
   inkscape:transform-center-x="253.48684"
   inkscape:transform-center-y="-0.57501172" /><path
   class="st2"
   d="m 328.10004,50.703924 v -68.799997 c 0,-2.3 1.89996,-3 1.89996,-3 h 6.99996 c 4.10005,0 4.2,6.4 4.2,6.4 l 10.2,88.199997 h 33 L 371.30005,-32.696077 c 0,0 -0.9,-12.9 -9.50004,-13.1 H 323.7 c 0,0 -6.69997,-0.2 -9.69997,9.5 h -0.10022 c -2.59993,-9.8 -9.6,-9.5 -9.6,-9.5 h -38.1 c -8.7,0.2 -9.49993,13.1 -9.49993,13.1 L 243.59999,73.503924 h 33 l 10.10003,-88.199997 c 0,0 0.10014,-6.4 4.2,-6.4 h 6.99997 c 0,0 1.89996,0.6 1.89996,3 v 68.799997"
   id="path168"
   style="fill:#0084c9;stroke-width:1.00002"
   inkscape:transform-center-x="-167.00008"
   inkscape:transform-center-y="-5.3691329" /><path
   class="st2"
   d="m 239.4,-21.896073 h -37.70004 v 17.7999975 l 37.70004,0.1 V 21.303924 h -37.70004 v 27.4 H 239.4 v 24.7 h -61.5 c 0,0 -8.30004,0.4 -8.30004,-10.2 v -98.900001 0 c 0,-10.6 8.30004,-10.2 8.30004,-10.2 h 61.5"
   id="path170"
   style="fill:#0084c9;stroke-width:1.00002"
   inkscape:transform-center-x="-57.499982"
   inkscape:transform-center-y="-5.4686336" /><path
   class="st2"
   d="m 164.00003,23.803924 -9.20002,30.4 c -6.39998,21.6 -18.80005,19.2 -18.80005,19.2 H 81.599992 v -26.1 h 33.699978 c 0,0 7.30007,0.3 9.9,-6.5 1.5,-4.2 4.60007,-14.5 4.60007,-14.5 0,0 1.5,-5.2 -4.90008,-5 H 97.70003 c 0,0 -21.600035,0.9 -14.600028,-27.8999995 l 8.09999,-26.2000015 c 4.799998,-13.8 13.199998,-13.2 13.199998,-13.2 h 54.69998 v 24.800004 h -34.09994 c 0,0 -6,-0.4 -6.9,3.3 -1.00007,4.3 -1.60007,8.6999975 -1.60007,8.6999975 0,0 -1.5,5.2 4.90007,5 H 149.4 c 0.30001,0 21.6,-0.8 14.60003,27.9999995"
   id="path172"
   style="fill:#0084c9;stroke-width:1.00002"
   inkscape:transform-center-x="23.49434"
   inkscape:transform-center-y="-5.4808842" /><path
   class="st2"
   d="M 44.699997,12.203924 H 26.300001 l 10.599996,-30.499997 c 0,0 0.999997,-2.6 2.600004,-3.2 2.599993,-0.9 5.199996,-0.4 5.199996,6 M 26.000001,-45.996077 c 0,0 -12.600001,-0.7 -18.300001,16.6 L -29.700004,73.603924 H 0.8999962 c 4.5999968,0 5.3000038,-3.6 5.3000038,-3.6 0,0 6.9,-21.9 9.3,-27.9 2.100001,-5.4 6.699997,-4.6 6.699997,-4.6 h 22.5 v 36.1 H 74.499998 V -45.996077 Z"
   id="path174"
   style="fill:#0084c9;stroke-width:1.00002"
   inkscape:transform-center-x="124.59997"
   inkscape:transform-center-y="-5.4205954" /></svg>
