<?xml version="1.0" encoding="utf-8"?>
<!-- Generator: Adobe Illustrator 21.0.0, SVG Export Plug-In . SVG Version: 6.00 Build 0)  -->
<svg version="1.1" id="Livello_1" xmlns="http://www.w3.org/2000/svg" xmlns:xlink="http://www.w3.org/1999/xlink" x="0px"
	y="0px" width="445.9px" height="170.8px" viewBox="0 0 445.9 170.8" style="enable-background:new 0 0 445.9 170.8;"
	xml:space="preserve">
	<style type="text/css">
		.st0 {
			fill: #006D72;
		}

		.st1 {
			fill: #FFFFFF;
		}

		.st2 {
			fill: #969F99;
		}

		.st3 {
			fill: #1D1D1B;
		}
	</style>
	<g>
		<g>
			<polygon class="st0" points="65.6,81.9 80,81.9 80,35.2 65.6,35.2 		" />
			<path class="st0" d="M416.3,46.3h6.7c5.5,0,7.1,1.7,7.1,4.6c0,4.2-3.7,4.6-6.3,4.6h-7.5L416.3,46.3L416.3,46.3z M401.9,81.9h14.4
			V65.6h7.6c5.7,0,6.1,4.6,6.5,9.1c0.2,2.4,0.5,4.8,1.2,7.2H446c-1.3-2.2-1.4-7.7-1.6-10c-0.5-5.8-2.9-10.1-6.9-11.6
			c4.8-1.8,7-6.9,7-11.7c0-8.8-7.1-13.3-15.2-13.3h-27.4V81.9L401.9,81.9z M358.5,81.9h39.3v-12h-25v-5.8h22V53h-22v-5.8H397v-12
			h-38.6v46.7H358.5z M327.1,46.3h7.6c2.9,0,4.9,0.8,4.9,3.2c0,3-1.9,3.9-4.9,3.9h-7.6V46.3L327.1,46.3z M312.7,81.9h26.5
			c8.2,0,16.3-4.8,16.3-14.2c0-6.9-3.9-10.2-8.1-11.6c3.5-1.9,5.7-4.4,5.7-9.1c0-4.8-2.6-11.7-14.9-11.7h-25.5V81.9L312.7,81.9z
			 M327.1,62.1h9c3.4,0,5,1.5,5,4.2c0,3.6-2.6,4.4-5.6,4.4h-8.4V62.1L327.1,62.1z M269.3,81.9h39.3v-12h-25v-5.8h22V53h-22v-5.8
			h24.2v-12h-38.6v46.7H269.3z M268.6,35.2h-14.2l-5.8,29.2L243,35.2h-12.7L224.7,64l-5.8-28.8h-14.1l12.7,46.6h14l4.9-28.4
			l5.2,28.4h14L268.6,35.2L268.6,35.2z M170.4,81.9h35v-12h-20.6V35.2h-14.4V81.9L170.4,81.9z M121.6,81.9H136l2.1-6.7h14.8l2,6.7
			h14.9l-17-46.6h-14L121.6,81.9L121.6,81.9z M141.2,65.2l4.5-14.4l4.3,14.4H141.2L141.2,65.2z M95.7,81.9H110V47.2h13.1v-12H82.6
			v12h13.1V81.9L95.7,81.9z" />
			<polygon class="st0" points="-0.1,1.8 82.7,1.8 82.7,84.6 -0.1,84.6 		" />
			<polygon class="st1" points="65.6,81.9 80,81.9 80,35.2 65.6,35.2 		" />
			<polygon class="st2" points="65.8,127.1 92.3,127.1 92.3,120.1 75.6,120.1 75.6,111.8 90.8,111.8 90.8,104.8 75.6,104.8 
			75.6,97.2 91.7,97.2 91.7,90.3 65.8,90.3 		" />
			<polygon class="st2" points="96.2,127.1 121.1,127.1 121.1,119.8 106,119.8 106,90.3 96.2,90.3 		" />
			<polygon class="st2" points="125.2,127.1 151.7,127.1 151.7,120.1 135,120.1 135,111.8 150.2,111.8 150.2,104.8 135,104.8 
			135,97.2 151.1,97.2 151.1,90.3 125.2,90.3 		" />
			<polygon class="st2"
				points="164,127.1 173.8,127.1 173.8,97.6 182.8,97.6 182.8,90.3 154.9,90.3 154.9,97.6 164,97.6 		" />
			<polygon class="st2"
				points="194.1,127.1 203.9,127.1 203.9,97.6 213,97.6 213,90.3 185,90.3 185,97.6 194.1,97.6 		" />
			<path class="st2" d="M215.9,127.1h9.8v-14.5h2.1c3.6,0,4.9,1.6,6.9,7.9l2.1,6.6H247l-3.6-10c-1.8-4.5-2.1-7.3-5.2-8.1v-0.1
			c4.7-1.1,7.1-4.4,7.1-9.3c0-6.3-5.3-9.3-11.9-9.3h-17.5L215.9,127.1L215.9,127.1z M225.7,97.2h2.6c3.7,0,7.2,0.6,7.2,4.1
			c0,4.2-4,4.3-7.2,4.3h-2.6V97.2L225.7,97.2z" />
			<path class="st2" d="M248.3,127.1h10l2.9-7.8H275l2.7,7.8h10.7l-14.2-36.8h-12L248.3,127.1L248.3,127.1z M272.7,112.3h-9.2
			l4.7-14.4h0.1L272.7,112.3L272.7,112.3z" />
		</g>
		<g>
			<path class="st3" d="M0.6,147.4h9.7c5.1,0,6.9,3.8,6.9,6.5c0,4.6-3.1,6.7-7.4,6.7H6.4v5.7H0.6V147.4z M6.4,156.1h2.3
			c1.5,0,3.1-0.1,3.1-2c0-1.7-1.3-1.8-2.8-1.8H6.4V156.1z" />
			<path class="st3" d="M26.3,166.7c-5.2,0-7.5-3.4-7.5-7.2s2.3-7.2,7.5-7.2s7.5,3.4,7.5,7.2S31.5,166.7,26.3,166.7z M26.3,156.1
			c-2,0-2.3,1.9-2.3,3.4s0.3,3.4,2.3,3.4s2.3-2,2.3-3.4S28.3,156.1,26.3,156.1z" />
			<path class="st3" d="M53.8,166.3h-5.4l-2-8.5h-0.1l-2,8.5H39l-4.3-13.7h5.5l2,8.5h0.1l1.7-8.5h4.9l1.8,8.5h0.1l1.9-8.5h5.5
			L53.8,166.3z" />
			<path class="st3" d="M64,160.7c0.1,1.6,1,2.7,2.7,2.7c0.8,0,1.8-0.3,2.2-1h4.9c-1.1,3-3.9,4.3-7.1,4.3c-4.4,0-7.7-2.6-7.7-7.2
			c0-4,2.9-7.3,7.3-7.3c5.5,0,7.8,3,7.8,8.4H64z M69.1,157.9c0-1.3-1-2.3-2.3-2.3c-1.6,0-2.5,0.8-2.7,2.3H69.1z" />
			<path class="st3" d="M76.6,152.6h5v2.2h0.1c0.8-1.6,2-2.5,3.9-2.5c0.5,0,1,0.1,1.5,0.2v4.6c-0.5-0.2-1-0.3-2.1-0.3
			c-2.1,0-3.2,1.2-3.2,4.2v5.4h-5.2V152.6z" />
			<path class="st3" d="M111,163.3c0,1,0.1,2.2,0.6,3.1h-5.4c-0.1-0.4-0.2-0.9-0.2-1.3h-0.1c-1.1,1.3-2.7,1.6-4.4,1.6
			c-2.6,0-4.8-1.3-4.8-4.2c0-4.3,5.1-4.2,7.8-4.7c0.7-0.1,1.4-0.3,1.4-1.2c0-0.9-0.9-1.3-1.7-1.3c-1.6,0-1.9,0.8-2,1.4h-4.9
			c0.1-1.9,1-3.1,2.4-3.7c1.3-0.6,3.1-0.8,4.7-0.8c6.6,0,6.5,2.7,6.5,5.4V163.3z M106,160.2c-0.6,0.3-1.4,0.5-2.1,0.7
			c-1.2,0.3-1.8,0.6-1.8,1.5c0,0.6,0.7,1.3,1.6,1.3c1.2,0,2.1-0.7,2.2-2.1V160.2z" />
			<path class="st3" d="M114.1,152.6h5.1v1.7h0.1c1-1.4,2.4-2.1,4.5-2.1c2.5,0,4.7,1.5,4.7,4.7v9.4h-5.2v-7.2c0-1.6-0.2-2.7-1.7-2.7
			c-0.9,0-2.1,0.5-2.1,2.6v7.3h-5.2V152.6z" />
			<path class="st3" d="M145.8,166.3h-5.1v-1.5h-0.1c-0.7,0.9-1.5,1.9-4,1.9c-3.9,0-5.8-3.8-5.8-7.3c0-3.2,1.2-7.2,5.9-7.2
			c1.6,0,3,0.7,3.8,1.9h0.1v-6.7h5.2V166.3z M138.4,156.1c-1.9,0-2.3,1.8-2.3,3.4c0,1.6,0.4,3.4,2.3,3.4c1.9,0,2.3-1.8,2.3-3.4
			C140.7,157.8,140.3,156.1,138.4,156.1z" />
			<path class="st3" d="M166.8,157.8c-0.1-0.6-0.2-1-0.6-1.3c-0.3-0.3-0.8-0.5-1.3-0.5c-2,0-2.3,1.7-2.3,3.4c0,1.7,0.3,3.4,2.3,3.4
			c1.1,0,1.9-0.9,2-2h5c-0.2,1.9-1.1,3.3-2.4,4.3c-1.2,1-2.9,1.5-4.8,1.5c-4.1,0-7.4-2.9-7.4-7.2s3.3-7.2,7.4-7.2
			c3.6,0,6.7,1.8,7,5.6H166.8z" />
			<path class="st3" d="M181.3,166.7c-5.2,0-7.5-3.4-7.5-7.2s2.3-7.2,7.5-7.2c5.2,0,7.5,3.4,7.5,7.2S186.5,166.7,181.3,166.7z
			 M181.3,156.1c-2,0-2.3,1.9-2.3,3.4s0.3,3.4,2.3,3.4s2.3-2,2.3-3.4S183.3,156.1,181.3,156.1z" />
			<path class="st3" d="M191.3,152.6h5.1v1.7h0.1c1-1.4,2.4-2.1,4.5-2.1c2.5,0,4.7,1.5,4.7,4.7v9.4h-5.2v-7.2c0-1.6-0.2-2.7-1.7-2.7
			c-0.9,0-2.1,0.5-2.1,2.6v7.3h-5.2V152.6z" />
			<path class="st3" d="M215,152.6h2.8v3.2H215v4.8c0,1.3,0.3,1.8,1.6,1.8c0.4,0,0.8,0,1.2-0.1v4c-1.1,0-2.3,0.2-3.4,0.2
			c-2.2,0-4.7-0.3-4.7-4.1v-6.6h-2.3v-3.2h2.3v-4.2h5.2V152.6z" />
			<path class="st3" d="M219.7,152.6h5v2.2h0.1c0.8-1.6,2-2.5,3.9-2.5c0.5,0,1,0.1,1.5,0.2v4.6c-0.5-0.2-1-0.3-2.1-0.3
			c-2.1,0-3.2,1.2-3.2,4.2v5.4h-5.2V152.6z" />
			<path class="st3" d="M238.7,166.7c-5.2,0-7.5-3.4-7.5-7.2s2.3-7.2,7.5-7.2s7.5,3.4,7.5,7.2S243.8,166.7,238.7,166.7z M238.7,156.1
			c-2,0-2.3,1.9-2.3,3.4s0.3,3.4,2.3,3.4s2.3-2,2.3-3.4S240.6,156.1,238.7,156.1z" />
			<path class="st3" d="M248.8,147.4h5.2v18.9h-5.2V147.4z" />
			<path class="st3" d="M266.4,147.4h8.3l2.7,11.1h0.1l2.7-11.1h8.3v18.9h-5.5v-12.1h-0.1l-3.3,12.1h-4.3l-3.3-12.1h-0.1v12.1h-5.5
			V147.4z" />
			<path class="st3" d="M305,163.3c0,1,0.1,2.2,0.6,3.1h-5.4c-0.1-0.4-0.2-0.9-0.2-1.3H300c-1.1,1.3-2.7,1.6-4.4,1.6
			c-2.6,0-4.8-1.3-4.8-4.2c0-4.3,5.1-4.2,7.8-4.7c0.7-0.1,1.4-0.3,1.4-1.2c0-0.9-0.9-1.3-1.7-1.3c-1.6,0-1.9,0.8-2,1.4h-4.9
			c0.1-1.9,1-3.1,2.4-3.7c1.3-0.6,3.1-0.8,4.7-0.8c6.6,0,6.5,2.7,6.5,5.4V163.3z M300,160.2c-0.6,0.3-1.4,0.5-2.1,0.7
			c-1.2,0.3-1.8,0.6-1.8,1.5c0,0.6,0.7,1.3,1.6,1.3c1.2,0,2.1-0.7,2.2-2.1V160.2z" />
			<path class="st3" d="M322.3,166.3h-5.1v-1.5h-0.1c-0.7,0.9-1.5,1.9-4,1.9c-3.9,0-5.8-3.8-5.8-7.3c0-3.2,1.2-7.2,5.9-7.2
			c1.6,0,3,0.7,3.8,1.9h0.1v-6.7h5.2V166.3z M315,156.1c-1.9,0-2.3,1.8-2.3,3.4c0,1.6,0.4,3.4,2.3,3.4c1.9,0,2.3-1.8,2.3-3.4
			C317.3,157.8,316.8,156.1,315,156.1z" />
			<path class="st3" d="M329.8,160.7c0.1,1.6,1,2.7,2.7,2.7c0.8,0,1.8-0.3,2.2-1h4.9c-1.1,3-3.9,4.3-7.1,4.3c-4.4,0-7.7-2.6-7.7-7.2
			c0-4,2.9-7.3,7.3-7.3c5.5,0,7.8,3,7.8,8.4H329.8z M334.9,157.9c0-1.3-1-2.3-2.3-2.3c-1.6,0-2.5,0.8-2.7,2.3H334.9z" />
			<path class="st3" d="M356.8,151.1h-5.2v-3.7h5.2V151.1z M351.5,152.6h5.2v13.7h-5.2V152.6z" />
			<path class="st3" d="M360,152.6h5.1v1.7h0.1c1-1.4,2.4-2.1,4.5-2.1c2.5,0,4.7,1.5,4.7,4.7v9.4h-5.2v-7.2c0-1.6-0.2-2.7-1.7-2.7
			c-0.9,0-2.1,0.5-2.1,2.6v7.3H360V152.6z" />
			<path class="st3" d="M386.6,147.4h5.8v18.9h-5.8V147.4z" />
			<path class="st3" d="M401.9,152.6h2.8v3.2h-2.8v4.8c0,1.3,0.3,1.8,1.6,1.8c0.4,0,0.8,0,1.2-0.1v4c-1.1,0-2.3,0.2-3.4,0.2
			c-2.2,0-4.7-0.3-4.7-4.1v-6.6h-2.3v-3.2h2.3v-4.2h5.2V152.6z" />
			<path class="st3" d="M420.5,163.3c0,1,0.1,2.2,0.6,3.1h-5.4c-0.1-0.4-0.2-0.9-0.2-1.3h-0.1c-1.1,1.3-2.7,1.6-4.4,1.6
			c-2.6,0-4.8-1.3-4.8-4.2c0-4.3,5.1-4.2,7.8-4.7c0.7-0.1,1.4-0.3,1.4-1.2c0-0.9-0.9-1.3-1.7-1.3c-1.6,0-1.9,0.8-2,1.4h-4.9
			c0.1-1.9,1-3.1,2.4-3.7c1.3-0.6,3.1-0.8,4.7-0.8c6.6,0,6.5,2.7,6.5,5.4V163.3z M415.5,160.2c-0.6,0.3-1.4,0.5-2.1,0.7
			c-1.2,0.3-1.8,0.6-1.8,1.5c0,0.6,0.7,1.3,1.6,1.3c1.2,0,2.1-0.7,2.2-2.1V160.2z" />
			<path class="st3" d="M423.6,147.4h5.2v18.9h-5.2V147.4z" />
			<path class="st3" d="M441.2,165.3c-0.4,1.2-0.9,2.8-1.7,3.8c-1.4,1.7-3.5,1.7-5.5,1.7h-2.4v-4.2h1.2c0.5,0,1.2,0.1,1.6-0.1
			c0.3-0.2,0.5-0.4,0.5-1c0-0.7-2-5.7-2.3-6.5l-2.3-6.3h5.6l2.2,7.9h0.1l2.2-7.9h5.4L441.2,165.3z" />
		</g>
	</g>
</svg>