<?xml version="1.0" encoding="UTF-8" standalone="no"?>
<svg
   width="112"
   height="140"
   viewBox="0 0 112 140"
   version="1.1"
   id="svg50"
   sodipodi:docname="rittal.svg"
   inkscape:version="1.2.1 (9c6d41e4, 2022-07-14)"
   xmlns:inkscape="http://www.inkscape.org/namespaces/inkscape"
   xmlns:sodipodi="http://sodipodi.sourceforge.net/DTD/sodipodi-0.dtd"
   xmlns="http://www.w3.org/2000/svg"
   xmlns:svg="http://www.w3.org/2000/svg">
  <sodipodi:namedview
     id="namedview52"
     pagecolor="#ffffff"
     bordercolor="#000000"
     borderopacity="0.25"
     inkscape:showpageshadow="2"
     inkscape:pageopacity="0.0"
     inkscape:pagecheckerboard="0"
     inkscape:deskcolor="#d1d1d1"
     showgrid="false"
     inkscape:zoom="1.6857143"
     inkscape:cx="56.059322"
     inkscape:cy="70"
     inkscape:window-width="1309"
     inkscape:window-height="456"
     inkscape:window-x="0"
     inkscape:window-y="25"
     inkscape:window-maximized="0"
     inkscape:current-layer="a" />
  <defs
     id="defs5">
    <clipPath
       id="b">
      <rect
         width="112"
         height="140"
         id="rect2"
         x="0"
         y="0" />
    </clipPath>
  </defs>
  <g
     id="a"
     clip-path="url(#b)">
    <rect
       width="112"
       height="140"
       fill="rgba(0,0,0,0)"
       id="rect7"
       x="0"
       y="0" />
    <g
       transform="matrix(1.555555,0,0,1.4,-3479.7765,-328.818)"
       id="g47">
      <rect
         width="72"
         height="100"
         transform="translate(2237,234.87)"
         fill="#ffffff"
         id="rect9"
         x="0"
         y="0" />
      <rect
         width="30.487"
         height="14.279"
         transform="translate(2238.382,274.737)"
         fill="#009453"
         id="rect11"
         x="0"
         y="0" />
      <rect
         width="30.487"
         height="12.238"
         transform="translate(2238.381,321.259)"
         fill="#009453"
         id="rect13"
         x="0"
         y="0" />
      <path
         d="m 37.119,148.543 h 8.711 v -23.9 H 5.656 v 8.653 h 31.463 z"
         transform="translate(2232.726,140.473)"
         fill="#008bd2"
         id="path15" />
      <rect
         width="8.7110004"
         height="12.238"
         transform="translate(2269.845,321.259)"
         fill="#008bd2"
         id="rect17"
         x="0"
         y="0" />
      <path
         d="m 46.807,118.505 h 8.711 V 84.979 H 5.656 v 8.653 h 41.151 z"
         transform="translate(2232.726,170.511)"
         fill="#005ca9"
         id="path19" />
      <rect
         width="8.7110004"
         height="12.238"
         transform="translate(2279.533,321.259)"
         fill="#005ca9"
         id="rect21"
         x="0"
         y="0" />
      <path
         d="M 56.494,88.467 H 65.2 V 45.316 H 5.655 v 8.654 h 50.839 z"
         transform="translate(2232.726,200.549)"
         fill="#951b81"
         id="path23" />
      <rect
         width="8.7110004"
         height="12.238"
         transform="translate(2289.22,321.259)"
         fill="#951b81"
         id="rect25"
         x="0"
         y="0" />
      <path
         d="m 5.655,5.656 v 8.653 h 60.527 v 44.12 h 8.711 V 5.656 Z"
         transform="translate(2232.726,230.587)"
         fill="#e50043"
         id="path27" />
      <rect
         width="8.7110004"
         height="12.238"
         transform="translate(2298.908,321.259)"
         fill="#e50043"
         id="rect29"
         x="0"
         y="0" />
      <rect
         width="69.237"
         height="2.7509999"
         transform="translate(2238.381,314.422)"
         id="rect31"
         x="0"
         y="0" />
      <path
         d="m 22.33,244.612 a 4.774,4.774 0 0 0 -3.965,-1.655 h -6.882 l -1.935,7.176 H 5.656 v 3.695 h 2.9 l -1.828,6.778 h 4.212 l 1.813,-6.717 h 1.7 l 1.569,6.717 h 4.627 l -1.867,-7.34 a 6.719,6.719 0 0 0 4.142,-4.578 4.578,4.578 0 0 0 -0.591,-4.076 m -3.509,3.659 a 2.52,2.52 0 0 1 -2.568,1.852 h -2.49 l 0.886,-3.286 H 17.6 a 1.463,1.463 0 0 1 1.15,0.38 1.307,1.307 0 0 1 0.072,1.055"
         transform="translate(2232.726,50.865)"
         id="path33" />
      <path
         d="m 71.832,260.605 h 4.213 l 4.761,-17.649 h -4.213 z"
         transform="translate(2182.713,50.865)"
         id="path35" />
      <path
         d="m 246.393,256.725 3.715,-13.769 h -4.214 l -4.759,17.649 h 11.721 v -3.88 z"
         transform="translate(2054.763,50.865)"
         id="path37" />
      <path
         d="m 187.177,242.956 h -3.212 l -11.277,17.649 h 4.641 l 1.968,-3.2 h 5.053 l 0.242,3.2 h 4.337 z m -5.792,10.729 2.632,-4.339 0.21,4.339 z"
         transform="translate(2106.492,50.865)"
         id="path39" />
      <path
         d="m 119.306,242.956 h -9.853 l -1.045,3.879 h 3.1 L 107.8,260.6 h 4.216 l 3.714,-13.77 h 2.533 z"
         transform="translate(2155.533,50.865)"
         id="path41" />
      <path
         d="m 152.866,242.956 -1.046,3.879 h 2.843 l -3.714,13.77 h 4.215 l 3.715,-13.77 h 2.757 l 1.047,-3.879 z"
         transform="translate(2122.921,50.865)"
         id="path43" />
      <rect
         width="72"
         height="100"
         transform="translate(2237,234.87)"
         fill="none"
         id="rect45"
         x="0"
         y="0" />
    </g>
  </g>
</svg>
