<?xml version="1.0" encoding="utf-8"?>
<!-- Generator: Adobe Illustrator 23.0.1, SVG Export Plug-In . SVG Version: 6.00 Build 0)  -->
<svg version="1.1" id="Livello_1" xmlns="http://www.w3.org/2000/svg" xmlns:xlink="http://www.w3.org/1999/xlink" x="0px"
	y="0px" viewBox="0 0 300 77.8" style="enable-background:new 0 0 300 77.8;" xml:space="preserve">
	<style type="text/css">
		.st0 {
			fill: #000;
		}

		.st1 {
			fill-rule: evenodd;
			clip-rule: evenodd;
			fill: #D87CAB;
		}

		.st2 {
			fill-rule: evenodd;
			clip-rule: evenodd;
			fill: #EA933E;
		}

		.st3 {
			fill-rule: evenodd;
			clip-rule: evenodd;
			fill: #F5C045;
		}

		.st4 {
			fill-rule: evenodd;
			clip-rule: evenodd;
			fill: #DB3832;
		}

		.st5 {
			fill-rule: evenodd;
			clip-rule: evenodd;
			fill: #F7EB4C;
		}

		.st6 {
			fill-rule: evenodd;
			clip-rule: evenodd;
			fill: #FFFFFF;
		}

		.st7 {
			fill: #C23433;
		}
	</style>
	<g>
		<path class="st0" d="M269.8,23.6c-0.1-4,0.1-7.9,0.6-11.9c0.2-2.1,0.9-4.1,1.9-5.8c1.2-1.9,3-3.5,5.1-4.4c2.4-1,4.9-1.5,7.5-1.4
		c2.6-0.1,5.1,0.4,7.5,1.4c2.1,1,3.8,2.5,5,4.4c1.1,1.8,1.7,3.8,2,5.9c0.5,3.9,0.7,7.9,0.6,11.8c0.1,4-0.1,7.9-0.6,11.8
		c-0.2,2.1-0.9,4.1-2,5.9c-1.2,1.9-3,3.5-5,4.4c-4.8,1.9-10.2,1.9-15,0c-2.1-1-3.8-2.5-5.1-4.4c-1-1.8-1.7-3.8-1.9-5.8
		C270,31.5,269.8,27.5,269.8,23.6L269.8,23.6z M289.3,27.6v-8.1c0-5-0.3-8.1-0.9-9.2c-0.7-1.2-2-1.9-3.4-1.8
		c-1.4-0.1-2.7,0.6-3.4,1.8c-0.6,1.2-0.9,4.2-0.9,9.2v8.1c0,4.9,0.3,7.9,0.9,9.2c0.8,1.1,2,1.8,3.4,1.8c1.4,0,2.6-0.7,3.4-1.8
		C289,35.6,289.3,32.6,289.3,27.6L289.3,27.6z M235.1,46.1V1h11.6c4.2,0,7.4,0.4,9.4,1.1c2,0.7,3.7,2,4.9,3.8c1,1.7,1.7,3.5,2,5.4
		c0.5,4.1,0.7,8.2,0.6,12.3c0.1,4.1-0.1,8.2-0.6,12.3c-0.3,1.9-1,3.7-2,5.4c-1.2,1.7-2.9,3.1-4.9,3.8c-2,0.7-5.2,1.1-9.4,1.1
		L235.1,46.1z M245.7,9.5v28.4c0.2,0,0.4,0.1,0.6,0.1h0.9c1,0,1.9-0.1,2.8-0.5c0.7-0.3,1.4-0.8,1.8-1.5c0.5-1,0.8-2.1,0.8-3.2
		c0.1-1.6,0.2-4.6,0.2-9.2v-2.1c0-3.7-0.1-6.3-0.2-7.6c0-1-0.3-1.9-0.8-2.7c-0.4-0.7-1-1.2-1.8-1.4c-1-0.3-2-0.5-3-0.5h-0.9
		L245.7,9.5L245.7,9.5z M199.2,46.1V1h11.8c2.8-0.1,5.6,0.1,8.4,0.5c3.2,0.5,6,2.7,7.1,5.7c0.7,1.8,1,3.6,0.9,5.5
		c0.1,2.2-0.4,4.5-1.4,6.5c-1,1.8-2.4,3.3-4.2,4.4c3.3,1.4,5,4.9,5.1,10.3v0.2c0,0.6,0,1.4,0.1,2.5c0.1,5.1,0.9,8.2,2.5,9.5h-12.3
		c-0.3-1-0.5-1.9-0.6-2.9c-0.1-1.1-0.2-2.2-0.2-3.3c0-0.7,0-1.6,0.1-2.6s0.1-1.7,0.1-2c0-2.8-0.4-4.6-1.1-5.6c-0.7-1-2-1.4-3.9-1.4
		h-2.2v18H199.2z M209.6,19.8h0.7h0.6c2.2,0,3.7-0.4,4.6-1.3c0.9-0.9,1.4-2.4,1.4-4.4c0-1.9-0.5-3.3-1.4-4.1
		c-0.9-0.8-2.5-1.2-4.6-1.2h-0.6h-0.7V19.8L209.6,19.8z M162.3,46.1L172.1,1h12.5l9.7,45.1h-10.5l-1.3-8.6h-8.3l-1.3,8.6L162.3,46.1
		z M175.3,29.3h6l-3-19.6L175.3,29.3z M129.3,46.1V1h11l8.7,27.8c-0.4-4.7-0.6-8.7-0.8-12.1c-0.2-3.4-0.2-6.3-0.2-8.6V1h9.4v45.1
		h-11l-8.8-28.6c0.4,3.7,0.7,7.3,0.9,10.8c0.2,3.5,0.3,6.9,0.3,10.2v7.6L129.3,46.1z M92.3,46.1L102.1,1h12.5l9.7,45.1h-10.5
		l-1.3-8.6h-8.3l-1.3,8.6H92.3z M105.3,29.3h6l-3-19.6L105.3,29.3z M63.1,46.1v-8.4l13.8-28H64.2V1.1h24.3v7.8l-13.8,28h14.5v9.2
		H63.1z" />
		<polygon class="st1" points="43.1,2.2 42,4.1 37.1,11.4 23.2,2.2 	" />
		<polygon class="st2" points="29.6,37.2 19.2,30.3 1.8,18.8 1.8,10 1.8,9.6 1.8,9.4 1.8,9.3 1.8,9.1 1.8,8.9 1.8,8.7 1.8,8.6 
		1.8,8.4 1.8,8.3 1.8,8.2 1.8,8.1 1.8,7.9 1.8,7.9 1.9,7.8 1.9,7.6 1.9,7.6 2,7.4 2,7.3 2,7.2 2,7.1 2,7 2,6.9 2,6.9 2,6.8 2.1,6.7 
		2.1,6.6 2.1,6.5 2.1,6.5 2.2,6.4 2.2,6.3 2.3,6.2 2.3,6.1 2.4,6 2.6,5.7 2.7,5.6 2.7,5.6 3,5.2 3,5.1 27.8,21.5 32.5,24.6 
		27.3,32.5 32.1,32.5 	" />
		<polygon class="st3"
			points="20.5,46.5 20.4,46.5 9.8,39.4 1.8,34.2 1.8,18.8 19.2,30.3 29.6,37.2 24,45.8 23.5,46.5 	" />
		<path class="st4" d="M37.5,18h-4.8l4.4-6.6L23.2,2.2H11.9L5.1,3.7h0L5,3.8L4.6,4.1C4.4,4.2,4.2,4.4,4,4.6L4,4.7L28.7,21l4.8,3.1
		L37.5,18z" />
		<polygon class="st5" points="21.5,47.2 21.4,47.1 1.8,34.2 1.8,47.2 	" />
		<path class="st6" d="M43.5,4.1H9.6c-3.3,0-5.9,2.7-5.9,5.9v37.2H0V10c0-5.3,4.3-9.6,9.6-9.6h36.3L43.5,4.1z" />
		<path class="st0" d="M6.4,47.2L31.8,8.6h-9.7c-4,0-6.7,0.9-8.3,2.6c-1.6,1.7-2.4,4.7-2.4,9.1v1.9H9.9v-15h28.5L13,45.8h22.6
		c4,0,7-1,8.9-3.1c1.9-2,2.9-5.2,2.9-9.4v-1h1.3v14.9H6.4z" />
		<polygon class="st4" points="15.2,61.4 35.3,30.9 30.5,30.9 39.8,16.8 35.1,16.8 45.8,0.4 50.6,0.4 41.3,14.6 46,14.6 36.7,28.7 
		41.5,28.7 15.3,61.4 	" />
		<polygon class="st0" points="67.4,71.2 66.6,72.6 66.6,77.6 64.1,77.6 64.1,61.5 66.6,61.5 66.6,68.5 69.9,61.5 72.4,61.5 
		68.9,68.6 72.4,77.6 69.8,77.6 	" />
		<polygon class="st0" points="79.1,68.3 82.5,68.3 82.5,70.6 79.1,70.6 79.1,75.3 83.5,75.3 83.5,77.6 76.6,77.6 76.6,61.5 
		83.5,61.5 83.5,63.8 79.1,63.8 	" />
		<polygon class="st0" points="90.6,68.3 94,68.3 94,70.6 90.6,70.6 90.6,75.3 94.9,75.3 94.9,77.6 88,77.6 88,61.5 94.9,61.5 
		94.9,63.8 90.6,63.8 	" />
		<path class="st0" d="M102,63.8v5.4h1.2c0.8,0,1.2-0.4,1.2-1.5v-2.4c0-1.1-0.4-1.5-1.2-1.5H102z M106.9,65.5v2.1c0,2.6-1.2,4-3.8,4
		H102v6.1h-2.5V61.5h3.7C105.7,61.5,106.9,62.9,106.9,65.5" />
		<polygon class="st0" points="120.2,68.3 123.6,68.3 123.6,70.6 120.2,70.6 120.2,75.3 124.5,75.3 124.5,77.6 117.6,77.6 
		117.6,61.5 124.5,61.5 124.5,63.8 120.2,63.8 	" />
		<polygon class="st0" points="131.3,65.9 131.3,77.6 129.1,77.6 129.1,61.5 132.2,61.5 134.8,71.1 134.8,61.5 137.1,61.5 
		137.1,77.6 134.5,77.6 	" />
		<polygon class="st0" points="144.4,68.3 147.9,68.3 147.9,70.6 144.4,70.6 144.4,75.3 148.8,75.3 148.8,77.6 141.9,77.6 
		141.9,61.5 148.8,61.5 148.8,63.8 144.4,63.8 	" />
		<path class="st0" d="M155.8,63.8v4.9h1c0.9,0,1.5-0.4,1.5-1.7v-1.6c0-1.1-0.4-1.7-1.3-1.7L155.8,63.8z M158.6,77.6
		c-0.2-0.6-0.3-1.3-0.2-2v-2.5c0-1.5-0.5-2-1.7-2h-0.9v6.5h-2.5V61.5h3.8c2.7,0,3.7,1.2,3.7,3.7v1.3c0,1.7-0.5,2.7-1.7,3.3
		c1.3,0.5,1.7,1.8,1.7,3.4v2.5c0,0.7,0,1.3,0.3,1.9L158.6,77.6z" />
		<path class="st0"
			d="M169.3,68.6h3.5v5.1c0,2.6-1.3,4-3.8,4c-2.5,0-3.8-1.5-3.8-4v-8.4c0-2.6,1.3-4,3.8-4c2.5,0,3.8,1.5,3.8,4v1.6
		h-2.4v-1.7c0-1.1-0.5-1.6-1.3-1.6c-0.8,0-1.3,0.4-1.3,1.6v8.7c0,1.1,0.5,1.6,1.3,1.6c0.8,0,1.3-0.4,1.3-1.6v-3h-1.1V68.6z" />
		<polygon class="st0"
			points="179.5,72.3 176.3,61.5 179,61.5 180.9,68.9 182.8,61.5 185.2,61.5 182,72.3 182,77.6 179.5,77.6 	" />
		<path class="st7" d="M198.2,72.5h2.4l-1.2-8.2L198.2,72.5z M203.9,77.6h-2.6l-0.4-2.9h-3.1l-0.4,2.9h-2.3l2.6-16.1h3.7L203.9,77.6z
		" />
		<polygon class="st7" points="208.1,61.5 210.6,61.5 210.6,75.3 214.7,75.3 214.7,77.6 208.1,77.6 	" />
		<rect x="218.9" y="61.5" class="st7" width="2.5" height="16.1" />
		<polygon class="st7" points="230,74.6 231.9,61.5 234.2,61.5 231.8,77.6 228,77.6 225.5,61.5 228.1,61.5 	" />
		<polygon class="st7" points="241,68.3 244.4,68.3 244.4,70.6 241,70.6 241,75.3 245.3,75.3 245.3,77.6 238.4,77.6 238.4,61.5 
		245.3,61.5 245.3,63.8 241,63.8 	" />
	</g>
</svg>