<?xml version="1.0" encoding="UTF-8"?><svg xmlns="http://www.w3.org/2000/svg" viewBox="0 0 24 24"><defs><style>.v{fill:#231f20;}</style></defs><g id="a"/><g id="b"/><g id="c"/><g id="d"/><g id="e"><g><path class="v" d="M21.69,10.91c-.04-.37-.35-.66-.72-.67-.68-.02-1.21-.57-1.21-1.24l-.68-.04h0l.7-.08c.02-.26-.09-.51-.29-.66-.2-.16-.47-.2-.71-.11-.27,.1-.52,.14-.76,.14-1.24,0-2.25-1.01-2.24-2.34,0,0,.01-.12,.02-.13,.03-.28-.1-.56-.34-.71-.24-.15-.54-.15-.79,0-.84,.5-1.89-.15-1.89-1.06,0-.21,.06-.42,.17-.61,.13-.23,.09-.51-.04-.74s-.41-.38-.67-.39c-.07,0-.14,0-.21,0C6.62,2.25,2.25,6.62,2.25,12s4.37,9.75,9.75,9.75,9.75-4.37,9.75-9.75c0-.37-.02-.73-.06-1.09Zm-9.69,9.34c-4.55,0-8.25-3.7-8.25-8.25,0-4.3,3.31-7.84,7.51-8.22,0,.07,0,.14,0,.22,0,1.62,1.47,2.92,3.07,2.73,.36,1.83,2.08,3.2,4.03,3,.25,.92,.97,1.65,1.89,1.91,0,.12,0,.24,0,.36,0,4.55-3.7,8.25-8.25,8.25Z"/><path class="v" d="M10.75,8.5c0-1.24-1.01-2.25-2.25-2.25s-2.25,1.01-2.25,2.25,1.01,2.25,2.25,2.25,2.25-1.01,2.25-2.25Zm-3,0c0-.41,.34-.75,.75-.75s.75,.34,.75,.75-.34,.75-.75,.75-.75-.34-.75-.75Z"/><path class="v" d="M15.5,10.25c-1.24,0-2.25,1.01-2.25,2.25s1.01,2.25,2.25,2.25,2.25-1.01,2.25-2.25-1.01-2.25-2.25-2.25Zm0,3c-.41,0-.75-.34-.75-.75s.34-.75,.75-.75,.75,.34,.75,.75-.34,.75-.75,.75Z"/><path class="v" d="M9.5,13.25c-1.24,0-2.25,1.01-2.25,2.25s1.01,2.25,2.25,2.25,2.25-1.01,2.25-2.25-1.01-2.25-2.25-2.25Zm0,3c-.41,0-.75-.34-.75-.75s.34-.75,.75-.75,.75,.34,.75,.75-.34,.75-.75,.75Z"/></g></g><g id="f"/><g id="g"/><g id="h"/><g id="i"/><g id="j"/><g id="k"/><g id="l"/><g id="m"/><g id="n"/><g id="o"/><g id="p"/><g id="q"/><g id="r"/><g id="s"/><g id="t"/><g id="u"/></svg>