<?xml version="1.0" encoding="UTF-8" standalone="no"?>
<!DOCTYPE svg PUBLIC "-//W3C//DTD SVG 1.1//EN" "http://www.w3.org/Graphics/SVG/1.1/DTD/svg11.dtd">
<svg version="1.1" xmlns="http://www.w3.org/2000/svg" xmlns:xlink="http://www.w3.org/1999/xlink" preserveAspectRatio="xMidYMid meet" viewBox="141.57142857142858 2.5714285714285623 311.8571428571429 121.85714285714286" width="307.86" height="117.86"><defs><path d="M317.57 121.43C339 120.36 354 103.57 354 83.57C354 76.79 352.57 70 349.36 64.64C346.76 64.64 333.79 64.64 310.43 64.64L310.43 121.43C314.71 121.43 317.1 121.43 317.57 121.43Z" id="a3Qxjg57H2"></path><path d="M306.86 64.29C306.86 64.29 306.86 64.29 306.86 64.29C306.86 98.57 306.86 117.62 306.86 121.43C306.86 121.43 306.86 121.43 306.86 121.43C285.43 121.43 273.52 121.43 271.14 121.43C271.14 121.43 271.14 121.43 271.14 121.43C271.14 87.14 271.14 68.1 271.14 64.29C271.14 64.29 271.14 64.29 271.14 64.29C292.57 64.29 304.48 64.29 306.86 64.29Z" id="f4FTutJy2X"></path><path d="M333.29 48.93C339.71 44.29 344 36.79 344 28.57C344 14.64 332.93 3.57 319 3.57C318.43 3.57 315.57 3.57 310.43 3.57L310.43 60.71L347.21 60.71C341.5 54.76 336.86 50.83 333.29 48.93Z" id="bP2ZrrZ8"></path><path d="M306.86 3.57C306.86 3.57 306.86 3.57 306.86 3.57C306.86 37.86 306.86 56.9 306.86 60.71C306.86 60.71 306.86 60.71 306.86 60.71C285.43 60.71 273.52 60.71 271.14 60.71C271.14 60.71 271.14 60.71 271.14 60.71C271.14 26.43 271.14 7.38 271.14 3.57C271.14 3.57 271.14 3.57 271.14 3.57C292.57 3.57 304.48 3.57 306.86 3.57Z" id="jnD8K8RB"></path><path d="M414 121.43C435.43 120.36 450.43 103.57 450.43 83.57C450.43 76.79 449 70 445.79 64.64C443.19 64.64 430.21 64.64 406.86 64.64L406.86 121.43C411.14 121.43 413.52 121.43 414 121.43Z" id="aF3LPGm3P"></path><path d="M403.29 64.29C403.29 64.29 403.29 64.29 403.29 64.29C403.29 98.57 403.29 117.62 403.29 121.43C403.29 121.43 403.29 121.43 403.29 121.43C381.86 121.43 369.95 121.43 367.57 121.43C367.57 121.43 367.57 121.43 367.57 121.43C367.57 87.14 367.57 68.1 367.57 64.29C367.57 64.29 367.57 64.29 367.57 64.29C389 64.29 400.9 64.29 403.29 64.29Z" id="b2rzi0aATU"></path><path d="M429.71 48.93C436.14 44.29 440.43 36.79 440.43 28.57C440.43 14.64 429.36 3.57 415.43 3.57C414.86 3.57 412 3.57 406.86 3.57L406.86 60.71L443.64 60.71C437.93 54.76 433.29 50.83 429.71 48.93Z" id="a1pEXdiBm0"></path><path d="M403.29 3.57C403.29 3.57 403.29 3.57 403.29 3.57C403.29 37.86 403.29 56.9 403.29 60.71C403.29 60.71 403.29 60.71 403.29 60.71C381.86 60.71 369.95 60.71 367.57 60.71C367.57 60.71 367.57 60.71 367.57 60.71C367.57 26.43 367.57 7.38 367.57 3.57C367.57 3.57 367.57 3.57 367.57 3.57C389 3.57 400.9 3.57 403.29 3.57Z" id="a1rRn7HA2s"></path><path d="M142.57 121.43L172.21 121.43L180.79 96.43L199.71 96.43L199.71 64.29L162.93 64.29L142.57 121.43Z" id="gbOFTRZ0m"></path><path d="M184.36 3.57L164 60.71L199.71 60.71L199.71 3.57L184.36 3.57Z" id="aHe5yJtP"></path><path d="M222.21 96.43L230.79 121.43L260.43 121.43L240.07 64.29L203.29 64.29L203.29 96.43L222.21 96.43Z" id="aD9gEAu80"></path><path d="M218.64 3.57L203.29 3.57L203.29 60.71L239 60.71L218.64 3.57Z" id="a5pGg0luB"></path></defs><g><g><use xlink:href="#a3Qxjg57H2" opacity="1" fill="#dbdbdb" fill-opacity="1"></use><g><use xlink:href="#a3Qxjg57H2" opacity="1" fill-opacity="0" stroke="#000000" stroke-width="1" stroke-opacity="0"></use></g></g><g><use xlink:href="#f4FTutJy2X" opacity="1" fill="#dbdbdb" fill-opacity="1"></use><g><use xlink:href="#f4FTutJy2X" opacity="1" fill-opacity="0" stroke="#000000" stroke-width="1" stroke-opacity="0"></use></g></g><g><use xlink:href="#bP2ZrrZ8" opacity="1" fill="#dbdbdb" fill-opacity="1"></use><g><use xlink:href="#bP2ZrrZ8" opacity="1" fill-opacity="0" stroke="#000000" stroke-width="1" stroke-opacity="0"></use></g></g><g><use xlink:href="#jnD8K8RB" opacity="1" fill="#dbdbdb" fill-opacity="1"></use><g><use xlink:href="#jnD8K8RB" opacity="1" fill-opacity="0" stroke="#000000" stroke-width="1" stroke-opacity="0"></use></g></g><g><use xlink:href="#aF3LPGm3P" opacity="1" fill="#dbdbdb" fill-opacity="1"></use><g><use xlink:href="#aF3LPGm3P" opacity="1" fill-opacity="0" stroke="#000000" stroke-width="1" stroke-opacity="0"></use></g></g><g><use xlink:href="#b2rzi0aATU" opacity="1" fill="#dbdbdb" fill-opacity="1"></use><g><use xlink:href="#b2rzi0aATU" opacity="1" fill-opacity="0" stroke="#000000" stroke-width="1" stroke-opacity="0"></use></g></g><g><use xlink:href="#a1pEXdiBm0" opacity="1" fill="#dbdbdb" fill-opacity="1"></use><g><use xlink:href="#a1pEXdiBm0" opacity="1" fill-opacity="0" stroke="#000000" stroke-width="1" stroke-opacity="0"></use></g></g><g><use xlink:href="#a1rRn7HA2s" opacity="1" fill="#dbdbdb" fill-opacity="1"></use><g><use xlink:href="#a1rRn7HA2s" opacity="1" fill-opacity="0" stroke="#000000" stroke-width="1" stroke-opacity="0"></use></g></g><g><use xlink:href="#gbOFTRZ0m" opacity="1" fill="#dbdbdb" fill-opacity="1"></use><g><use xlink:href="#gbOFTRZ0m" opacity="1" fill-opacity="0" stroke="#000000" stroke-width="1" stroke-opacity="0"></use></g></g><g><use xlink:href="#aHe5yJtP" opacity="1" fill="#dbdbdb" fill-opacity="1"></use><g><use xlink:href="#aHe5yJtP" opacity="1" fill-opacity="0" stroke="#000000" stroke-width="1" stroke-opacity="0"></use></g></g><g><use xlink:href="#aD9gEAu80" opacity="1" fill="#dbdbdb" fill-opacity="1"></use><g><use xlink:href="#aD9gEAu80" opacity="1" fill-opacity="0" stroke="#000000" stroke-width="1" stroke-opacity="0"></use></g></g><g><use xlink:href="#a5pGg0luB" opacity="1" fill="#dbdbdb" fill-opacity="1"></use><g><use xlink:href="#a5pGg0luB" opacity="1" fill-opacity="0" stroke="#000000" stroke-width="1" stroke-opacity="0"></use></g></g></g></svg>