<?xml version="1.0" encoding="UTF-8" standalone="no"?>
<!DOCTYPE svg PUBLIC "-//W3C//DTD SVG 1.1//EN" "http://www.w3.org/Graphics/SVG/1.1/DTD/svg11.dtd">
<svg version="1.1" xmlns="http://www.w3.org/2000/svg" xmlns:xlink="http://www.w3.org/1999/xlink" preserveAspectRatio="xMidYMid meet" viewBox="0 0 593 125" width="593" height="125"><defs><path d="M554.6 59.62C554.6 59.62 554.6 59.62 554.6 59.62C554.6 64.92 554.6 67.86 554.6 68.45C554.6 68.45 554.6 68.45 554.6 68.45C290.8 68.45 144.25 68.45 114.94 68.45C114.94 68.45 114.94 68.45 114.94 68.45C114.94 63.15 114.94 60.21 114.94 59.62C114.94 59.62 114.94 59.62 114.94 59.62C378.73 59.62 525.29 59.62 554.6 59.62Z" id="b1uzhIvST"></path><path d="M565.49 37.92C551.16 37.92 539.48 49.6 539.48 63.94C539.48 78.27 551.06 89.95 565.49 89.95C579.82 89.95 591.5 78.37 591.5 63.94C591.5 49.6 579.82 37.92 565.49 37.92" id="d1B7b5zFau"></path><path d="M63.6 2.39C29.84 2.39 2.55 29.78 2.55 63.44C2.55 97.21 29.93 124.5 63.6 124.5C97.37 124.5 124.66 97.11 124.66 63.44C124.66 29.78 97.37 2.39 63.6 2.39" id="awICUE5Y4"></path><path d="M101.49 85.43C101.39 85.53 86.47 91.81 76.76 85.92C72.24 83.17 69.59 77.97 68.9 70.32C68.9 70.34 68.9 70.43 68.9 70.61C68.84 66.96 68.81 64.93 68.81 64.52C68.81 60.7 70.18 49.6 76.07 45.19C79.21 42.93 83.33 42.54 88.73 44.21C88.67 44.19 88.2 44.03 88.14 44.01C89.52 44.7 96.29 48.52 93.35 56.08C90.6 63.05 77.64 62.46 68.22 61.97C68.05 61.97 67.2 61.93 65.66 61.87L65.27 70.22C66.74 70.28 67.56 70.31 67.73 70.32C79.7 70.9 96.09 71.69 101 59.13C105.71 46.95 96.98 39 91.68 36.45C91.66 36.44 91.56 36.41 91.38 36.35C91.21 36.29 91.11 36.26 91.09 36.25C83.14 33.8 76.36 34.59 71.06 38.51C60.56 46.27 60.46 63.84 60.46 64.52C60.47 64.93 60.5 66.96 60.56 70.61L60.56 70.81C60.56 70.87 60.56 70.9 60.56 70.9C61.44 81.31 65.47 88.67 72.34 92.89C85.59 100.94 100.51 93.97 101.3 93.68" id="f5atdVN0k8"></path><path d="M27.87 46.27C28.07 46.27 43.09 39.89 52.81 45.78C57.32 48.52 59.97 53.83 60.66 61.38C60.66 61.36 60.66 61.27 60.66 61.09C60.72 64.74 60.75 66.77 60.76 67.17C60.76 71 59.38 82.1 53.49 86.51C50.35 88.77 46.23 89.16 40.83 87.49C40.89 87.51 41.36 87.67 41.42 87.69C40.04 87 33.27 83.17 36.22 75.52C38.96 68.55 51.92 69.14 61.35 69.63C61.52 69.64 62.37 69.67 63.9 69.73L64.29 61.38C62.82 61.32 62 61.29 61.84 61.29C49.86 60.7 33.47 59.91 28.56 72.48C23.85 84.65 32.58 92.6 37.88 95.15C37.9 95.16 38 95.23 38.18 95.35C38.36 95.41 38.45 95.44 38.47 95.44C46.42 97.9 53.2 97.11 58.6 93.19C69.1 85.43 69.2 67.86 69.2 67.17C69.19 66.77 69.16 64.74 69.1 61.09L69.1 60.89C69.1 60.77 69.1 60.71 69.1 60.7C68.12 50.29 64.19 42.93 57.32 38.71C44.07 30.66 28.95 37.63 28.17 37.92" id="aUTxINg76"></path><path d="M474.79 97.31C474.79 56.79 474.79 34.28 474.79 29.78C474.79 27.52 476.66 26.83 476.66 26.83C477.35 26.83 482.84 26.83 483.53 26.83C487.55 26.83 487.65 33.11 487.65 33.11C488.32 38.89 491.66 67.74 497.66 119.69L530.06 119.69C522.34 57.14 518.06 22.39 517.2 15.44C517.2 15.44 516.31 2.78 507.87 2.59C504.13 2.59 474.21 2.59 470.47 2.59C470.47 2.59 463.9 2.39 460.95 11.91C460.94 11.91 460.86 11.91 460.85 11.91C458.3 2.29 451.43 2.59 451.43 2.59C447.69 2.59 417.77 2.59 414.03 2.59C405.49 2.78 404.71 15.44 404.71 15.44C403.85 22.39 399.56 57.14 391.85 119.69L424.24 119.69C430.19 67.74 433.49 38.89 434.15 33.11C434.15 33.11 434.25 26.83 438.28 26.83C438.96 26.83 444.46 26.83 445.15 26.83C445.15 26.83 447.01 27.42 447.01 29.78C447.01 34.28 447.01 56.79 447.01 97.31" id="br8ip5EvE"></path><path d="M387.73 26.05L350.72 26.05L350.72 43.52L387.73 43.62L387.73 68.45L350.72 68.45L350.72 95.35L387.73 95.35L387.73 119.59C351.5 119.59 331.38 119.59 327.36 119.59C327.36 119.59 319.21 119.98 319.21 109.58C319.21 103.11 319.21 70.75 319.21 12.5C319.21 12.5 319.21 12.5 319.21 12.5C319.21 2.1 327.36 2.49 327.36 2.49C331.38 2.49 351.5 2.49 387.73 2.49" id="a3yzUkIScB"></path><path d="M313.71 70.9C308.29 88.81 305.28 98.76 304.68 100.75C298.4 121.95 286.23 119.59 286.23 119.59C282.67 119.59 264.87 119.59 232.83 119.59L232.83 93.97C252.68 93.97 263.7 93.97 265.91 93.97C265.91 93.97 273.08 94.27 275.63 87.59C277.1 83.47 280.14 73.36 280.14 73.36C280.14 73.36 281.61 68.25 275.33 68.45C272.66 68.45 251.3 68.45 248.63 68.45C248.63 68.45 227.43 69.33 234.3 41.06C235.1 38.49 241.46 17.92 242.25 15.35C246.96 1.8 255.21 2.39 255.21 2.39C258.79 2.39 276.69 2.39 308.9 2.39L308.9 26.73C288.82 26.73 277.66 26.73 275.43 26.73C275.43 26.73 269.54 26.34 268.66 29.97C267.68 34.19 267.09 38.51 267.09 38.51C267.09 38.51 265.61 43.62 271.9 43.42C274.65 43.42 296.63 43.42 299.38 43.42C299.68 43.42 320.58 42.63 313.71 70.9" id="aJ1cbEMe5"></path><path d="M196.61 59.52L178.55 59.52C184.79 41.56 188.26 31.58 188.95 29.58C188.95 29.58 189.93 27.03 191.5 26.44C194.06 25.56 196.61 26.05 196.61 32.33M160.29 18.68C157.84 25.42 145.61 59.13 123.58 119.79C141.6 119.79 151.61 119.79 153.61 119.79C158.13 119.79 158.82 116.25 158.82 116.25C158.82 116.25 165.59 94.76 167.95 88.87C170.01 83.57 174.52 84.35 174.52 84.35C176 84.35 183.36 84.35 196.61 84.35L196.61 119.79L225.86 119.79L225.86 2.39L178.25 2.39C170.01 1.93 164.02 7.36 160.29 18.68Z" id="aQauYYgEC"></path></defs><g><g><g><use xlink:href="#b1uzhIvST" opacity="1" fill="#dbdbdb" fill-opacity="1"></use><g><use xlink:href="#b1uzhIvST" opacity="1" fill-opacity="0" stroke="#000000" stroke-width="1" stroke-opacity="0"></use></g></g><g><use xlink:href="#d1B7b5zFau" opacity="1" fill="#dbdbdb" fill-opacity="1"></use><g><use xlink:href="#d1B7b5zFau" opacity="1" fill-opacity="0" stroke="#000000" stroke-width="1" stroke-opacity="0"></use></g></g><g><use xlink:href="#awICUE5Y4" opacity="1" fill="#dbdbdb" fill-opacity="1"></use><g><use xlink:href="#awICUE5Y4" opacity="1" fill-opacity="0" stroke="#000000" stroke-width="1" stroke-opacity="0"></use></g></g><g><use xlink:href="#f5atdVN0k8" opacity="1" fill="#dbdbdb" fill-opacity="1"></use><g><use xlink:href="#f5atdVN0k8" opacity="1" fill-opacity="0" stroke="#000000" stroke-width="1" stroke-opacity="0"></use></g></g><g><use xlink:href="#aUTxINg76" opacity="1" fill="#dbdbdb" fill-opacity="1"></use><g><use xlink:href="#aUTxINg76" opacity="1" fill-opacity="0" stroke="#000000" stroke-width="1" stroke-opacity="0"></use></g></g><g><use xlink:href="#br8ip5EvE" opacity="1" fill="#dbdbdb" fill-opacity="1"></use><g><use xlink:href="#br8ip5EvE" opacity="1" fill-opacity="0" stroke="#000000" stroke-width="1" stroke-opacity="0"></use></g></g><g><use xlink:href="#a3yzUkIScB" opacity="1" fill="#dbdbdb" fill-opacity="1"></use><g><use xlink:href="#a3yzUkIScB" opacity="1" fill-opacity="0" stroke="#000000" stroke-width="1" stroke-opacity="0"></use></g></g><g><use xlink:href="#aJ1cbEMe5" opacity="1" fill="#dbdbdb" fill-opacity="1"></use><g><use xlink:href="#aJ1cbEMe5" opacity="1" fill-opacity="0" stroke="#000000" stroke-width="1" stroke-opacity="0"></use></g></g><g><use xlink:href="#aQauYYgEC" opacity="1" fill="#dbdbdb" fill-opacity="1"></use><g><use xlink:href="#aQauYYgEC" opacity="1" fill-opacity="0" stroke="#000000" stroke-width="1" stroke-opacity="0"></use></g></g></g></g></svg>