<?xml version="1.0" encoding="UTF-8" standalone="no"?>
<!DOCTYPE svg PUBLIC "-//W3C//DTD SVG 1.1//EN" "http://www.w3.org/Graphics/SVG/1.1/DTD/svg11.dtd">
<svg version="1.1" xmlns="http://www.w3.org/2000/svg" xmlns:xlink="http://www.w3.org/1999/xlink" preserveAspectRatio="xMidYMid meet" viewBox="4 3.9555776571247705 243.99699999999996 97.08678617877058" width="240" height="93.09"><defs><path d="M223.41 50.42C222.46 51.7 220.57 52.94 221.43 54.65C222.6 55.39 224 54.57 225.05 53.98C227.47 52.23 229.44 49.71 229.61 46.86C229.58 46.86 229.39 46.85 229.36 46.85C227.26 47.78 225.24 48.87 223.41 50.42M203.5 55.75C206.88 54.8 209.23 51.67 209.99 48.48C209.99 48.48 210.12 48.24 209.92 47.98C209.72 47.72 209.26 47.85 209.26 47.85C206.26 49.07 202.88 51.36 202.11 54.94C202.18 55.56 202.87 55.88 203.5 55.75ZM193.52 18.67C194.55 16.98 195.76 13.92 195.73 13.03C195.7 12.13 195.68 12.19 195.47 11.84C195.24 11.65 195.06 11.59 194.36 11.83C193.57 12.1 191.84 13.64 190.63 14.74C185.64 20.55 182.04 26.92 178.98 33.54C184.17 29.44 190.09 24.31 193.52 18.67ZM101.29 68.08C101.98 68.47 102.82 68.16 103.48 68.03C107.64 66.05 110.98 61.72 113.04 57.84C113.68 56.42 114.77 54.27 113.32 52.83C111.73 52.16 110.12 53.08 108.82 54.01C106.06 55.9 103.95 58.78 102.32 61.37C101.44 63.38 99.78 65.84 101.29 68.08ZM81.3 62.09C81.47 61.85 82.85 59.94 83.02 59.7C86.39 53.23 90.56 45.12 86.8 37.61C85.57 34.88 82.7 33.6 80.34 32.68C78.85 34.91 71.42 46.09 58.05 66.2C68.19 64.02 75.94 62.65 81.3 62.09ZM29.09 91.11C38.02 92.8 51.71 87.34 61.36 81.33C67.49 77.18 74.16 71.75 78.84 65.73C70.41 67.05 61.96 69.19 54.14 71.98C53.49 72.94 48.33 80.6 47.69 81.56C46.49 83.4 44.87 85.96 42.36 85.66C41.56 85.44 41.26 84.73 41.58 83.88C42.09 82.94 46.19 75.43 46.71 74.49C41.33 76.29 36.16 78.57 31.47 82.05C29.14 83.89 26.32 85.97 26.53 89.14C26.77 90.36 28.08 90.82 29.09 91.11ZM76.37 20.46C76.61 20.09 78.47 17.07 78.7 16.69C83.09 16 87.58 15.41 91.97 14.96C91.38 15.86 86.64 23.03 86.05 23.93C91.81 26.41 96.66 32.4 97.13 38.74C97.16 47.27 93.28 54.41 88.81 61.05C89.42 60.97 94.37 60.34 94.99 60.26C99.35 53.31 111.35 44.28 116.61 51.19C116.61 51.19 115.82 50.04 116.61 51.19C116.73 51.03 117.33 50.21 118.41 48.74L126.45 47.66C120.33 58.03 116.93 63.79 116.25 64.94C116.17 65.21 116.27 65.66 116.74 65.61C119.17 64.54 121.32 62.79 123.24 61.03C128.14 56.54 132.37 51.57 135.55 46.24C136.06 46.19 138.63 45.91 143.24 45.41C140.66 49.94 139.22 52.45 138.93 52.96C142.54 50.13 146.16 45.95 150.5 44.15C151.65 43.63 153.07 44.03 154.11 44.53C155.11 45.37 155.45 46.45 155.41 47.74C153.83 52.6 150.42 56.67 147.94 61.18C147.84 61.54 147.73 61.9 148.22 62.05C154.33 58.93 160.36 53.03 164.75 47.43C164.28 47.48 161.93 47.77 157.7 48.28L160.28 43.43C164.25 43.05 166.46 42.83 166.9 42.79C175.08 29.92 183.14 15.72 196.45 6.34C198.16 5.55 200.5 4.01 202.26 5.76C203.8 8.49 202.04 11.57 200.97 14.07C195.38 24.39 184.42 32.75 175.24 40.05C175.19 40.16 174.94 40.75 174.49 41.82C183.88 40.77 189.09 40.19 190.13 40.07C190.44 40.22 190.33 40.8 190.23 41.05C185.11 45.32 179.64 50.21 178.96 56.75C178.74 57.86 179.53 58.53 180.36 58.99C184.08 59.89 186.56 56.18 188.97 53.74C190.34 51.97 192.25 50.03 192.88 47.92C191.58 47.33 190.76 45.63 190.83 44.46C191.07 41.5 192.4 38.91 194.85 37.12C195.69 36.58 196.92 36.37 197.92 36.8C198.65 37.29 199.51 38.03 199.61 38.94C199.96 41.52 198.89 43.72 197.94 45.89C203.1 45.06 207.41 41.55 211.51 37.89C211.57 37.81 211.99 37.18 212.04 37.1C212.21 33.58 212.87 30.18 215.67 27.87C217.07 26.91 218.89 25.57 220.63 26.77C221.89 27.37 221.49 30.12 221.49 30.12C220.79 33.58 214.36 35.94 215.56 40.92C215.72 41.58 215.23 42.45 215.89 42.77C221.12 41.42 226.19 38.96 231.01 36.57C231.51 35.11 231.04 33.51 231.5 32.05C232.22 29.37 233.92 26.5 236.68 25.31C237.55 25.07 238.53 25.01 239.32 25.43C240.32 26.31 240.77 27.61 240.27 28.89C239.75 32.22 236.91 34.71 234.56 37.12C233.92 42.79 236.09 48.51 233.89 53.61C231.62 58.22 226.77 60.54 221.89 60.74C219.95 60.59 217.76 59.91 217.08 57.81C215.93 53.91 218.74 50.55 221.76 48.22C224.39 46.05 227.36 44.75 230.36 43.45C231.48 42.49 231.4 40.55 231.21 39.26C228.52 40.57 225.33 42.02 222.4 43.21C221.74 43.47 216.48 45.52 215.82 45.78C215.74 51.31 214.27 57.02 209.37 60.01C206.26 61.44 201.69 63.14 198.51 60.64C197.06 59.41 196.94 57.32 197.34 55.69C199.1 49.13 206.25 47.04 211.35 44.44C212.13 43.43 211.86 42.04 211.66 40.99C207.21 44.78 201.69 48.13 195.95 48.63C191.78 55 185.26 64.22 176.6 63.62C175.07 63.64 173.86 62.9 172.75 61.99C170.34 59.21 171.66 55.02 173.08 52.21C174.53 49.27 177.33 46.96 179.51 44.51C177.04 44.66 172.29 45.37 172.29 45.37C171.44 46.96 167.18 54.87 159.53 69.11L163.15 68.9L183.63 66.85L208.46 65.22C225.15 64.57 234.42 64.21 236.27 64.14C238.43 63.99 240.72 64.11 242.95 64.09C242.46 64.53 238.47 68.03 237.97 68.47C240.22 70.05 242.57 71.78 245 73.12C244.99 73.14 244.97 73.19 244.93 73.3L224.89 72.6L199.9 72.83C180.41 73.67 169.59 74.13 167.42 74.22C163.73 74.61 159.94 74.75 156.21 74.99C155.74 75.85 153.38 80.13 149.14 87.85L140.47 88.46L147.75 76L147.94 75.68L131.77 76.66L102.17 79.57C87.7 81.45 79.66 82.49 78.06 82.7C78.8 81.77 78.92 79.96 80.55 80.01C82.66 79.65 93.24 77.85 112.27 74.61L131.6 72.06L151.14 70.11C154.89 63.63 156.98 60.03 157.4 59.31C157.08 58.99 156.78 59.34 156.52 59.55C152.38 63.06 148.15 66.36 142.95 67.22C141.95 67.14 141.08 66.76 140.32 66.12C138.02 62.13 142.68 57.6 143.95 55.27C143.95 55.27 145.35 53.1 146.26 51.06C146.26 51.06 146.39 50.9 146.23 50.71C146.07 50.52 145.83 50.65 145.83 50.65C139.69 55.68 133.61 61.89 129.37 68.32C127.04 68.45 124.74 68.66 122.48 68.96C123.3 66.81 124.48 64.47 125.7 62.37C121.88 65.26 118.2 68.54 113.91 70.2C112.72 70.68 110.25 70.94 108.71 67.79C104.51 70.82 99.71 74.64 94.3 72.51C92.88 71.45 92.41 69.84 92.28 68.17C92.23 66.61 92.61 65.12 93.18 63.8C93.18 63.8 93.2 63.8 93.23 63.81C89.22 64.2 86.99 64.42 86.54 64.46C71.96 80.27 54.34 92.31 34.57 96.79C29.07 97.9 22.59 98.71 16.93 97.27C15.02 96.73 13.05 95.04 12.65 92.99C12.52 87.94 17.22 84.05 21.14 81.33C30.06 75.53 39.8 71.79 49.82 68.71C49.93 68.53 50.47 67.64 51.44 66.04L71.08 30.23C71.15 30.23 71.19 30.23 71.2 30.23C47.21 27.62 25.88 36.41 6.68 47.31C6.57 47.37 6.01 47.65 5 48.17L15.85 28.6C41.97 21.1 62.15 18.39 76.37 20.46Z" id="cgrUeHEyr"></path></defs><g><g><use xlink:href="#cgrUeHEyr" opacity="1" fill="#dbdbdb" fill-opacity="1"></use><g><use xlink:href="#cgrUeHEyr" opacity="1" fill-opacity="0" stroke="#000000" stroke-width="1" stroke-opacity="0"></use></g></g></g></svg>