<?xml version="1.0" encoding="UTF-8" standalone="no"?>
<!DOCTYPE svg PUBLIC "-//W3C//DTD SVG 1.1//EN" "http://www.w3.org/Graphics/SVG/1.1/DTD/svg11.dtd">
<svg version="1.1" xmlns="http://www.w3.org/2000/svg" xmlns:xlink="http://www.w3.org/1999/xlink" preserveAspectRatio="xMidYMid meet" viewBox="-0.5052693208430405 0.7915690866510536 448.01053864168614 128.71311475409834" width="444.01" height="124.71"><defs><path d="M80.22 81.52L80.22 35.04L65.89 35.04L65.89 81.52L80.22 81.52Z" id="arKV5Xwc1"></path><path d="M421.61 46.08C427.09 46.08 428.68 47.78 428.68 50.66C428.68 54.84 425 55.24 422.41 55.24C421.91 55.24 419.42 55.24 414.94 55.24L414.94 46.08L414.94 46.08C418.95 46.08 421.17 46.08 421.61 46.08ZM414.94 81.52L414.94 65.29C419.48 65.29 422 65.29 422.51 65.29C428.18 65.29 428.58 69.87 428.98 74.35C429.18 76.74 429.48 79.13 430.17 81.52C431.61 81.52 443.07 81.52 444.51 81.52C443.21 79.33 443.11 73.85 442.91 71.56C442.42 65.79 440.03 61.51 436.05 60.02C440.82 58.23 443.01 53.15 443.01 48.37C443.01 39.61 435.95 35.13 427.88 35.13C426.07 35.13 416.97 35.13 400.61 35.13L400.61 81.52L400.61 81.52L414.94 81.52ZM396.53 81.52L396.53 69.57L371.65 69.57L371.65 63.8L393.55 63.8L393.55 52.75L371.65 52.75L371.65 46.98L395.73 46.98L395.73 35.04L357.32 35.04L357.32 81.52L357.42 81.52L396.53 81.52ZM333.73 46.08C336.61 46.08 338.6 46.88 338.6 49.27C338.6 52.25 336.71 53.15 333.73 53.15C333.22 53.15 330.7 53.15 326.16 53.15L326.16 46.08L326.16 46.08C330.7 46.08 333.22 46.08 333.73 46.08ZM338.21 81.52C346.37 81.52 354.43 76.74 354.43 67.38C354.43 60.52 350.55 57.23 346.37 55.84C349.85 53.95 352.04 51.46 352.04 46.78C352.04 42 349.45 35.13 337.21 35.13C335.52 35.13 327.06 35.13 311.83 35.13L311.83 81.52L311.83 81.52C327.66 81.52 336.45 81.52 338.21 81.52ZM335.12 61.81C338.5 61.81 340.1 63.3 340.1 65.99C340.1 69.57 337.51 70.37 334.52 70.37C333.97 70.37 331.18 70.37 326.16 70.37L326.16 61.81L326.16 61.81C331.54 61.81 334.52 61.81 335.12 61.81ZM307.75 81.52L307.75 69.57L282.87 69.57L282.87 63.8L304.76 63.8L304.76 52.75L282.87 52.75L282.87 46.98L306.95 46.98L306.95 35.04L268.53 35.04L268.53 81.52L268.63 81.52L307.75 81.52ZM253.8 35.04L248.03 64.1L242.46 35.04L229.82 35.04L224.24 63.7L218.47 35.04L204.44 35.04L217.08 81.42L231.01 81.42L235.89 53.15L241.06 81.42L255 81.42L267.94 35.04L267.94 35.04L253.8 35.04ZM205.03 81.52L205.03 69.57L184.53 69.57L184.53 35.04L170.2 35.04L170.2 81.52L170.2 81.52L205.03 81.52ZM135.96 81.52L138.05 74.85L152.78 74.85L154.77 81.52L169.6 81.52L152.68 35.13L138.74 35.13L121.62 81.52L121.62 81.52L135.96 81.52ZM145.61 50.56L149.89 64.89L141.13 64.89L141.13 64.89L145.61 50.56ZM110.08 81.52L110.08 46.98L123.12 46.98L123.12 35.04L82.81 35.04L82.81 46.98L95.85 46.98L95.85 81.52L95.85 81.52L110.08 81.52Z" id="b16bxGV22F"></path><path d="M82.91 1.79L82.91 84.2L0.49 84.2L0.49 1.79L82.91 1.79Z" id="b5gYWrPYZ6"></path><path d="M80.22 81.52L80.22 35.04L65.89 35.04L65.89 81.52L80.22 81.52Z" id="dfSD1HYX3"></path><path d="M92.46 126.5L92.46 119.54L75.84 119.54L75.84 111.28L90.97 111.28L90.97 104.31L75.84 104.31L75.84 96.74L91.86 96.74L91.86 89.88L66.09 89.88L66.09 126.5L92.46 126.5Z" id="a6dkDo5Rtg"></path><path d="M121.13 126.5L121.13 119.24L106.1 119.24L106.1 89.88L96.34 89.88L96.34 126.5L121.13 126.5Z" id="b1GJn35Dpc"></path><path d="M151.58 126.5L151.58 119.54L134.96 119.54L134.96 111.28L150.09 111.28L150.09 104.31L134.96 104.31L134.96 96.74L150.99 96.74L150.99 89.88L125.21 89.88L125.21 126.5L151.58 126.5Z" id="e2abZhqxZT"></path><path d="M173.58 126.5L173.58 97.14L182.54 97.14L182.54 89.88L154.77 89.88L154.77 97.14L163.83 97.14L163.83 126.5L173.58 126.5Z" id="f3eU7FG8Nk"></path><path d="M203.54 126.5L203.54 97.14L212.6 97.14L212.6 89.88L184.73 89.88L184.73 97.14L193.79 97.14L193.79 126.5L203.54 126.5Z" id="a9hnJk7gG"></path><path d="M225.24 126.5L225.24 112.07C226.49 112.07 227.19 112.07 227.33 112.07C230.91 112.07 232.2 113.67 234.19 119.94C234.33 120.37 235.03 122.56 236.29 126.5L246.44 126.5C244.29 120.53 243.09 117.22 242.85 116.55C241.06 112.07 240.76 109.29 237.68 108.49C237.68 108.48 237.68 108.4 237.68 108.39C242.36 107.3 244.75 104.01 244.75 99.13C244.75 92.86 239.47 89.88 232.9 89.88C231.74 89.88 225.93 89.88 215.48 89.88L215.48 126.5L215.48 126.5L225.24 126.5ZM227.82 96.74C231.51 96.74 234.99 97.34 234.99 100.83C234.99 105.01 231.01 105.11 227.82 105.11C227.65 105.11 226.79 105.11 225.24 105.11L225.24 96.74L225.24 96.74C226.79 96.74 227.65 96.74 227.82 96.74Z" id="a1cvusKYtS"></path><path d="M257.68 126.5L260.57 118.74L274.31 118.74L276.99 126.5L287.64 126.5L273.51 89.88L261.57 89.88L247.73 126.5L247.73 126.5L257.68 126.5ZM262.86 111.77L267.54 97.44L267.64 97.44L272.02 111.77L272.02 111.77L262.86 111.77Z" id="c2Fd9Ps5DU"></path></defs><g><g><use xlink:href="#arKV5Xwc1" opacity="1" fill="#dbdbdb" fill-opacity="1"></use><g><use xlink:href="#arKV5Xwc1" opacity="1" fill-opacity="0" stroke="#000000" stroke-width="1" stroke-opacity="0"></use></g></g><g><use xlink:href="#b16bxGV22F" opacity="1" fill="#dbdbdb" fill-opacity="1"></use><g><use xlink:href="#b16bxGV22F" opacity="1" fill-opacity="0" stroke="#000000" stroke-width="1" stroke-opacity="0"></use></g></g><g><use xlink:href="#b5gYWrPYZ6" opacity="1" fill="#dbdbdb" fill-opacity="1"></use><g><use xlink:href="#b5gYWrPYZ6" opacity="1" fill-opacity="0" stroke="#000000" stroke-width="1" stroke-opacity="0"></use></g></g><g><use xlink:href="#dfSD1HYX3" opacity="1" fill="#dbdbdb" fill-opacity="1"></use><g><use xlink:href="#dfSD1HYX3" opacity="1" fill-opacity="0" stroke="#000000" stroke-width="1" stroke-opacity="0"></use></g></g><g><use xlink:href="#a6dkDo5Rtg" opacity="1" fill="#dbdbdb" fill-opacity="1"></use><g><use xlink:href="#a6dkDo5Rtg" opacity="1" fill-opacity="0" stroke="#000000" stroke-width="1" stroke-opacity="0"></use></g></g><g><use xlink:href="#b1GJn35Dpc" opacity="1" fill="#dbdbdb" fill-opacity="1"></use><g><use xlink:href="#b1GJn35Dpc" opacity="1" fill-opacity="0" stroke="#000000" stroke-width="1" stroke-opacity="0"></use></g></g><g><use xlink:href="#e2abZhqxZT" opacity="1" fill="#dbdbdb" fill-opacity="1"></use><g><use xlink:href="#e2abZhqxZT" opacity="1" fill-opacity="0" stroke="#000000" stroke-width="1" stroke-opacity="0"></use></g></g><g><use xlink:href="#f3eU7FG8Nk" opacity="1" fill="#dbdbdb" fill-opacity="1"></use><g><use xlink:href="#f3eU7FG8Nk" opacity="1" fill-opacity="0" stroke="#000000" stroke-width="1" stroke-opacity="0"></use></g></g><g><use xlink:href="#a9hnJk7gG" opacity="1" fill="#dbdbdb" fill-opacity="1"></use><g><use xlink:href="#a9hnJk7gG" opacity="1" fill-opacity="0" stroke="#000000" stroke-width="1" stroke-opacity="0"></use></g></g><g><use xlink:href="#a1cvusKYtS" opacity="1" fill="#dbdbdb" fill-opacity="1"></use><g><use xlink:href="#a1cvusKYtS" opacity="1" fill-opacity="0" stroke="#000000" stroke-width="1" stroke-opacity="0"></use></g></g><g><use xlink:href="#c2Fd9Ps5DU" opacity="1" fill="#dbdbdb" fill-opacity="1"></use><g><use xlink:href="#c2Fd9Ps5DU" opacity="1" fill-opacity="0" stroke="#000000" stroke-width="1" stroke-opacity="0"></use></g></g></g></svg>