<?xml version="1.0" encoding="UTF-8" standalone="no"?>
<!DOCTYPE svg PUBLIC "-//W3C//DTD SVG 1.1//EN" "http://www.w3.org/Graphics/SVG/1.1/DTD/svg11.dtd">
<svg version="1.1" xmlns="http://www.w3.org/2000/svg" xmlns:xlink="http://www.w3.org/1999/xlink" preserveAspectRatio="xMidYMid meet" viewBox="-1 172.79592393156568 643.9999999999999 296.4081521368687" width="640" height="292.41"><defs><path d="M640 365.48C640 365.48 640 365.48 640 365.48C640 380.84 640 389.38 640 391.08C640 391.08 640 391.08 640 391.08C256 391.08 42.67 391.08 0 391.08C0 391.08 0 391.08 0 391.08C0 375.72 0 367.18 0 365.48C0 365.48 0 365.48 0 365.48C384 365.48 597.33 365.48 640 365.48Z" id="g1HLEQrlT4"></path><path d="M117.48 173.8C113.24 173.8 92.04 173.8 53.87 173.8L35.99 240.58L0 240.58L0 274.96L26.74 274.96L9.86 338.04L48.81 338.04L65.44 275.53L81.14 275.53L95.97 338.04L138.72 338.04C128.28 297.08 122.48 274.32 121.32 269.77C140.22 262.6 154.48 246.71 159.57 227.15C163.5 212.4 161.41 198.92 154.12 189.2C146.4 179.12 133.75 173.8 117.48 173.8ZM97.93 240.45C96.4 240.45 88.74 240.45 74.95 240.45L83.15 209.92C99.48 209.92 108.55 209.92 110.37 209.92C114.26 209.48 118.15 210.77 121.01 213.45C122.6 216.47 122.84 220.02 121.67 223.22C118.83 233.86 108.93 241.05 97.93 240.45Z" id="aIM7j0zER"></path><path d="M188.37 338.04L232.34 173.8L193.43 173.8L149.41 338.04L149.41 338.04L188.37 338.04Z" id="b23tifPM0"></path><path d="M614.61 173.8L575.66 173.8L531.64 338.04L640 338.04L640 301.92L580.24 301.92L580.24 301.92L614.61 173.8Z" id="aoSo77c3a"></path><path d="M511.05 173.8L481.34 173.8L377.12 338.04L420.01 338.04L438.2 308.24L484.92 308.24L487.14 338.04L527.23 338.04L511.05 173.8ZM457.48 273.65L481.82 233.25L483.78 273.65L457.48 273.65Z" id="g59o6dGCQ"></path><path d="M245.91 173.8L236.26 209.92L264.93 209.92L230.59 338.04L269.59 338.04L303.92 209.92L327.31 209.92L336.99 173.8L336.99 173.8L245.91 173.8Z" id="cTbHsge20"></path><path d="M336.08 209.92L362.38 209.92L328 338.04L367 338.04L401.34 209.92L426.81 209.92L436.5 173.8L345.76 173.8L345.76 173.8L336.08 209.92Z" id="c18zawHe5"></path><path d="M281.81 415.82C281.81 415.82 281.81 415.82 281.81 415.82C281.81 446.05 281.81 462.85 281.81 466.2C281.81 466.2 281.81 466.2 281.81 466.2C112.72 466.2 18.79 466.2 0 466.2C0 466.2 0 466.2 0 466.2C0 435.97 0 419.18 0 415.82C0 415.82 0 415.82 0 415.82C169.08 415.82 263.02 415.82 281.81 415.82Z" id="g4ATgM0K92"></path><path d="M371.37 415.82C371.37 415.82 371.37 415.82 371.37 415.82C371.37 446.05 371.37 462.85 371.37 466.2C371.37 466.2 371.37 466.2 371.37 466.2C323.05 466.2 296.21 466.2 290.84 466.2C290.84 466.2 290.84 466.2 290.84 466.2C290.84 435.97 290.84 419.18 290.84 415.82C290.84 415.82 290.84 415.82 290.84 415.82C339.16 415.82 366 415.82 371.37 415.82Z" id="b2TcXibbno"></path><path d="M460.88 415.82C460.88 415.82 460.88 415.82 460.88 415.82C460.88 446.05 460.88 462.85 460.88 466.2C460.88 466.2 460.88 466.2 460.88 466.2C412.56 466.2 385.72 466.2 380.35 466.2C380.35 466.2 380.35 466.2 380.35 466.2C380.35 435.97 380.35 419.18 380.35 415.82C380.35 415.82 380.35 415.82 380.35 415.82C428.67 415.82 455.51 415.82 460.88 415.82Z" id="b18kR9RYeL"></path><path d="M550.44 415.82C550.44 415.82 550.44 415.82 550.44 415.82C550.44 446.05 550.44 462.85 550.44 466.2C550.44 466.2 550.44 466.2 550.44 466.2C502.12 466.2 475.28 466.2 469.91 466.2C469.91 466.2 469.91 466.2 469.91 466.2C469.91 435.97 469.91 419.18 469.91 415.82C469.91 415.82 469.91 415.82 469.91 415.82C518.23 415.82 545.07 415.82 550.44 415.82Z" id="a11XUOtdM9"></path><path d="M640 415.82C640 415.82 640 415.82 640 415.82C640 446.05 640 462.85 640 466.2C640 466.2 640 466.2 640 466.2C591.68 466.2 564.84 466.2 559.47 466.2C559.47 466.2 559.47 466.2 559.47 466.2C559.47 435.97 559.47 419.18 559.47 415.82C559.47 415.82 559.47 415.82 559.47 415.82C607.79 415.82 634.63 415.82 640 415.82Z" id="e1g18Tvl2Z"></path></defs><g><g><use xlink:href="#g1HLEQrlT4" opacity="1" fill="#dbdbdb" fill-opacity="1"></use><g><use xlink:href="#g1HLEQrlT4" opacity="1" fill-opacity="0" stroke="#000000" stroke-width="1" stroke-opacity="0"></use></g></g><g><use xlink:href="#aIM7j0zER" opacity="1" fill="#dbdbdb" fill-opacity="1"></use><g><use xlink:href="#aIM7j0zER" opacity="1" fill-opacity="0" stroke="#000000" stroke-width="1" stroke-opacity="0"></use></g></g><g><use xlink:href="#b23tifPM0" opacity="1" fill="#dbdbdb" fill-opacity="1"></use><g><use xlink:href="#b23tifPM0" opacity="1" fill-opacity="0" stroke="#000000" stroke-width="1" stroke-opacity="0"></use></g></g><g><use xlink:href="#aoSo77c3a" opacity="1" fill="#dbdbdb" fill-opacity="1"></use><g><use xlink:href="#aoSo77c3a" opacity="1" fill-opacity="0" stroke="#000000" stroke-width="1" stroke-opacity="0"></use></g></g><g><use xlink:href="#g59o6dGCQ" opacity="1" fill="#dbdbdb" fill-opacity="1"></use><g><use xlink:href="#g59o6dGCQ" opacity="1" fill-opacity="0" stroke="#000000" stroke-width="1" stroke-opacity="0"></use></g></g><g><use xlink:href="#cTbHsge20" opacity="1" fill="#dbdbdb" fill-opacity="1"></use><g><use xlink:href="#cTbHsge20" opacity="1" fill-opacity="0" stroke="#000000" stroke-width="1" stroke-opacity="0"></use></g></g><g><use xlink:href="#c18zawHe5" opacity="1" fill="#dbdbdb" fill-opacity="1"></use><g><use xlink:href="#c18zawHe5" opacity="1" fill-opacity="0" stroke="#000000" stroke-width="1" stroke-opacity="0"></use></g></g><g><use xlink:href="#g4ATgM0K92" opacity="1" fill="#dbdbdb" fill-opacity="1"></use><g><use xlink:href="#g4ATgM0K92" opacity="1" fill-opacity="0" stroke="#000000" stroke-width="1" stroke-opacity="0"></use></g></g><g><use xlink:href="#b2TcXibbno" opacity="1" fill="#dbdbdb" fill-opacity="1"></use><g><use xlink:href="#b2TcXibbno" opacity="1" fill-opacity="0" stroke="#000000" stroke-width="1" stroke-opacity="0"></use></g></g><g><use xlink:href="#b18kR9RYeL" opacity="1" fill="#dbdbdb" fill-opacity="1"></use><g><use xlink:href="#b18kR9RYeL" opacity="1" fill-opacity="0" stroke="#000000" stroke-width="1" stroke-opacity="0"></use></g></g><g><use xlink:href="#a11XUOtdM9" opacity="1" fill="#dbdbdb" fill-opacity="1"></use><g><use xlink:href="#a11XUOtdM9" opacity="1" fill-opacity="0" stroke="#000000" stroke-width="1" stroke-opacity="0"></use></g></g><g><use xlink:href="#e1g18Tvl2Z" opacity="1" fill="#dbdbdb" fill-opacity="1"></use><g><use xlink:href="#e1g18Tvl2Z" opacity="1" fill-opacity="0" stroke="#000000" stroke-width="1" stroke-opacity="0"></use></g></g></g></svg>