<?xml version="1.0" encoding="UTF-8" standalone="no"?>
<!DOCTYPE svg PUBLIC "-//W3C//DTD SVG 1.1//EN" "http://www.w3.org/Graphics/SVG/1.1/DTD/svg11.dtd">
<svg version="1.1" xmlns="http://www.w3.org/2000/svg" xmlns:xlink="http://www.w3.org/1999/xlink" preserveAspectRatio="xMidYMid meet" viewBox="10.746582 9.1606445 481.26123049999995 116.43213271823598" width="477.26" height="112.43"><defs><path d="M462.57 83.32L462.57 90.01C462.66 90.01 462.71 90.01 462.72 90.01C464.94 84.62 470.05 82.48 475.28 82.47C485.15 82.47 488.76 87.64 488.76 95C488.76 96.78 488.76 105.7 488.76 121.75L470.2 121.75C470.2 108.45 470.2 101.06 470.2 99.58C470.2 97.37 470.2 94.34 466.94 94.34C463.61 94.34 463.61 97.37 463.61 99.58C463.61 101.06 463.61 108.45 463.61 121.75L445.05 121.75L445.05 83.32L445.05 83.32L462.57 83.32ZM31.42 121.75L34.58 110.63L51.24 110.63L54.63 121.75L75.33 121.75L56.98 70.31L29.8 70.31L11.75 121.75L11.75 121.75L31.42 121.75ZM43.17 81.34L48.78 98.29L37.35 98.29L43.02 81.34L43.02 81.34L43.17 81.34ZM102.29 121.75L102.29 115.15C102.21 115.15 102.16 115.15 102.15 115.15C99.93 120.53 94.82 122.67 89.59 122.58C79.72 122.58 76.11 117.43 76.11 110.06C76.11 108.28 76.11 99.36 76.11 83.32L94.67 83.32C94.67 96.61 94.67 104 94.67 105.48C94.67 107.7 94.67 110.73 97.93 110.73C101.26 110.73 101.26 107.7 101.26 105.48C101.26 104 101.26 96.61 101.26 83.32L119.82 83.32L119.82 121.75L119.82 121.75L102.29 121.75ZM159.07 101.83C159.07 115.1 167.33 122.59 182.86 122.59C198.31 122.59 206.71 115.1 206.71 101.83C206.71 88.93 198.31 82.46 182.86 82.46C167.33 82.46 159.07 88.93 159.07 101.83C159.07 101.83 159.07 101.83 159.07 101.83C159.07 101.83 159.07 101.83 159.07 101.83ZM182.86 93.49C186.44 93.49 186.95 97.25 186.95 101.83C186.95 107.44 186.44 111.57 182.86 111.57C179.27 111.57 178.83 107.44 178.83 101.83C178.83 101.83 178.83 101.83 178.83 101.83C179.12 96.27 180.47 93.49 182.86 93.49ZM228.86 83.32L228.86 90.01C228.95 90.01 229 90.01 229.01 90.01C231.23 84.62 236.34 82.48 242.16 82.47C247.32 82.47 252.69 84.47 254.17 89.04C254.18 89.04 254.29 89.04 254.31 89.04C255.57 84.62 262.08 82.47 266.65 82.47C280.2 82.47 280.2 91.25 280.2 98.7C280.2 100.23 280.2 107.92 280.2 121.75L261.64 121.75C261.64 108.45 261.64 101.06 261.64 99.58C261.64 97.37 261.64 94.34 258.31 94.34C255.05 94.34 255.05 97.37 255.05 99.58C255.05 101.06 255.05 108.45 255.05 121.75L236.49 121.75C236.49 108.45 236.49 101.06 236.49 99.58C236.49 97.37 236.49 94.34 233.23 94.34C229.9 94.34 229.9 97.37 229.9 99.58C229.9 101.06 229.9 108.45 229.9 121.75L211.34 121.75L211.34 83.32L211.34 83.32L228.86 83.32ZM298.54 122.59C291.39 122.59 284.46 119.36 284.46 111.35C284.46 99.6 295.07 97.25 304.28 97.25C306.86 97.25 309.8 97.63 311.49 97.77C311.42 92.77 306.34 92.17 301.71 92.17C297.28 92.17 292.56 93.59 288.88 95.46C288.88 94.38 288.88 85.75 288.88 84.67C294.41 83.13 297.72 82.46 304.94 82.46C315.54 82.46 328.44 84.37 328.44 98.43C328.44 99.99 328.44 107.76 328.44 121.74L311.19 121.74L311.19 116.19L311.05 116.19L311.05 116.19C306.18 120.46 302.01 122.6 298.54 122.59ZM305.75 112.9C302.88 112.9 301.41 111.87 301.41 109.22C301.41 105.25 305.83 104.88 309.65 104.88C309.77 104.88 310.39 104.88 311.49 104.88L311.49 106.06L311.49 106.06C310.21 110.62 308.3 112.9 305.75 112.9ZM370.02 83.4L388.58 83.4L388.58 121.75L370.02 121.75L370.02 121.75L370.02 83.4ZM370.02 70.35L388.58 70.35L388.58 78.84L370.02 78.84L370.02 78.84L370.02 70.35ZM416.38 122.59C431.83 122.59 440.23 115.1 440.23 101.83C440.23 88.93 431.83 82.46 416.38 82.46C400.85 82.46 392.58 88.93 392.58 101.83C392.58 101.83 392.58 101.83 392.58 101.83C398.09 115.67 406.02 122.59 416.38 122.59ZM416.38 93.49C419.96 93.49 420.47 97.25 420.47 101.83C420.47 107.44 419.96 111.57 416.38 111.57C412.79 111.57 412.35 107.44 412.35 101.83C412.35 101.83 412.35 101.83 412.35 101.83C412.64 96.27 413.98 93.49 416.38 93.49ZM357.63 83.27L357.63 70.33L339.04 70.33L339.04 83.27L331.14 83.27L331.14 94.06L339.04 94.06L339.04 121.75L357.63 121.75L357.63 94.06L365.62 94.06L365.62 83.27L365.62 83.27L357.63 83.27ZM131.8 70.33L131.8 83.35L123.9 83.35L123.9 94.06L131.8 94.06L131.8 121.75L150.39 121.75L150.39 94.06L158.38 94.06L158.38 83.35L150.39 83.35L150.39 70.33L150.39 70.33L131.8 70.33Z" id="aTj2tZ7GV"></path><path d="M471.19 10.2L489.01 10.2L489.01 60.79L471.19 60.79L471.19 60.79L471.19 10.2ZM174.31 37.09C181.58 35.35 186.44 31.42 186.44 23.65C186.44 13.93 178.96 10.16 166.84 10.16C164.75 10.16 154.29 10.16 135.46 10.16L135.46 60.79L154.92 60.79L154.92 43.54C157.52 43.54 158.96 43.54 159.25 43.54C161.64 43.54 163.59 43.83 164.75 46.16C166.33 49.21 166.55 57.15 167.42 60.79C169.45 60.79 185.65 60.79 187.67 60.79C185.64 55.86 185.85 48.03 182.88 42.67C181.06 39.99 178.53 37.96 174.31 37.24C174.31 37.24 174.31 37.24 174.31 37.24C174.31 37.15 174.31 37.1 174.31 37.09ZM174.31 37.09L174.31 37.24L174.31 37.24L174.31 37.09ZM159.39 21.47C163.3 21.47 166.98 22.13 166.98 26.7C166.98 31.79 163.08 32.23 159.11 32.23C158.77 32.23 157.08 32.23 154.04 32.23L154.04 21.47L154.04 21.47C157.25 21.47 159.04 21.47 159.39 21.47ZM211.59 61.62C226.8 61.62 235.08 54.24 235.08 41.18C235.08 28.49 226.8 22.12 211.59 22.12C196.31 22.12 188.18 28.49 188.18 41.18C188.18 41.18 188.18 41.18 188.18 41.18C193.6 54.81 201.41 61.62 211.59 61.62ZM211.59 32.97C215.12 32.97 215.63 36.68 215.63 41.18C215.63 46.7 215.12 50.77 211.59 50.77C208.07 50.77 207.64 46.7 207.64 41.18C207.64 41.18 207.64 41.18 207.64 41.18C207.92 35.71 209.24 32.97 211.59 32.97ZM261.32 61.62C246.01 61.62 237.88 54.24 237.88 41.18C237.88 28.49 246.01 22.12 261.32 22.12C266.77 22.12 270.83 22.63 274.6 23.7C274.6 24.82 274.6 33.74 274.6 34.86C272.35 33.84 269.67 32.97 266.4 32.97C260.96 32.97 257.33 35.8 257.33 41.47C257.33 47.36 260.96 50.77 266.4 50.77C269.67 50.77 272.35 50.05 274.89 48.52C274.89 49.27 274.89 53.01 274.89 59.74L274.89 59.74C269.47 60.99 264.95 61.62 261.32 61.62ZM297.96 39.65L306.92 22.96L326.86 22.96L316.31 39.65L328.85 60.79L308.26 60.79L297.96 39.65L297.81 39.65L297.81 60.79L279.55 60.79L279.55 10.2L297.81 10.2L297.81 39.65L297.81 39.65L297.96 39.65ZM348.71 47.72L352.63 22.96L374.61 22.96L378.82 47.72L378.96 47.72L382.29 22.96L398.97 22.96L390.5 60.79L367.72 60.79L363.22 35.1L363.08 35.1L358.41 60.79L335.48 60.79L327.01 22.96L344.92 22.96L348.56 47.72L348.56 47.72L348.71 47.72ZM423.18 61.62C407.86 61.62 399.75 54.24 399.75 41.15C399.75 28.51 407.86 22.13 423.18 22.13C437.87 22.13 443.03 31.27 443.03 43.98C443.03 44.13 443.03 44.88 443.03 46.23C427.84 46.23 419.4 46.23 417.71 46.23C418 50.98 422.45 52.07 427.85 52.07C432.86 52.07 437.36 51.19 440.27 49.66C440.27 50.31 440.27 53.58 440.27 59.45L440.27 59.45C433.15 60.89 427.46 61.62 423.18 61.62ZM422.6 30.83C426.76 30.83 427.19 35.37 427.19 38.26C426.56 38.26 423.37 38.26 417.64 38.26L417.64 38.26C418.12 33.31 419.78 30.83 422.6 30.83ZM447.77 10.2L465.59 10.2L465.59 60.79L447.77 60.79L447.77 60.79L447.77 10.2Z" id="b3U6Ffrx9e"></path></defs><g><g><use xlink:href="#aTj2tZ7GV" opacity="1" fill="#dbdbdb" fill-opacity="1"></use><g><use xlink:href="#aTj2tZ7GV" opacity="1" fill-opacity="0" stroke="#000000" stroke-width="1" stroke-opacity="0"></use></g></g><g><use xlink:href="#b3U6Ffrx9e" opacity="1" fill="#dbdbdb" fill-opacity="1"></use><g><use xlink:href="#b3U6Ffrx9e" opacity="1" fill-opacity="0" stroke="#000000" stroke-width="1" stroke-opacity="0"></use></g></g></g></svg>