<?xml version="1.0" encoding="UTF-8" standalone="no"?>
<!DOCTYPE svg PUBLIC "-//W3C//DTD SVG 1.1//EN" "http://www.w3.org/Graphics/SVG/1.1/DTD/svg11.dtd">
<svg version="1.1" xmlns="http://www.w3.org/2000/svg" xmlns:xlink="http://www.w3.org/1999/xlink" preserveAspectRatio="xMidYMid meet" viewBox="0.8381867499999771 0.22545787499998937 188.745 58.53699347429885" width="184.75" height="54.54"><defs><path d="M22.85 9.17C18.63 7.29 16.11 6.57 13.61 6.57C10.98 6.57 9.3 7.51 9.3 8.96C9.3 13.34 24.17 12.11 24.17 22.25C24.17 27.84 19.48 31.09 12.96 31.09C7.85 31.09 5.33 29.77 2.43 28.27C2.43 27.64 2.43 22.62 2.43 22C6.62 24.77 9.18 25.75 12.4 25.75C15.2 25.75 16.71 24.77 16.71 23.06C16.71 18.29 1.84 20.04 1.84 9.59C1.84 4.56 6.19 1.23 12.96 1.23C16.23 1.23 19.18 1.91 22.85 3.49C22.85 3.87 22.85 5.76 22.85 9.17" id="a2ZpXg6Fs"></path><path d="M43.67 29.76C41.19 30.65 39.1 31.08 37.01 31.08C30.08 31.08 25.6 27.05 25.6 20.91C25.6 14.89 30.25 10.63 36.75 10.63C38.76 10.63 41.32 11.14 43.37 11.91C43.37 12.37 43.37 16.06 43.37 16.52C41.75 15.66 39.87 15.19 38.33 15.19C34.61 15.19 32.22 17.42 32.22 20.87C32.22 24.36 34.57 26.66 38.11 26.66C39.61 26.66 40.94 26.32 43.67 25.3C43.67 25.6 43.67 27.08 43.67 29.76" id="a1trvTccKR"></path><path d="M101.95 14.33C104.35 14.33 105.97 15.96 106.22 18.65C105.65 18.65 102.8 18.65 97.67 18.65C98.9 15.77 100.33 14.33 101.95 14.33ZM101.52 10.64C95.45 10.64 91.12 14.93 91.12 20.97C91.12 27.05 95.62 31.08 102.55 31.08C104.09 31.08 107.8 31.08 111.34 28.46C111.34 28.08 111.34 25 111.34 24.61C108.44 26.68 106.53 27.39 104.05 27.39C100.15 27.39 97.76 25.37 97.54 21.92C98.96 21.92 110.28 21.92 111.69 21.92C111.99 14.72 107.26 10.64 101.52 10.64" id="a8AvxbDs4"></path><path d="M120.27 30.72L120.27 11L114.09 11L114.09 30.72L120.27 30.72Z" id="a1ngPhHnEm"></path><path d="M133.81 26.96C130.9 26.96 129.05 24.56 129.05 20.97C129.05 17.03 130.9 14.76 134.02 14.76C135.13 14.76 136.59 15.27 137.49 15.92C137.49 16.54 137.49 19.68 137.49 25.33C135.92 26.42 134.69 26.96 133.81 26.96ZM137.49 1.59C137.49 7.75 137.49 11.18 137.49 11.87C135.82 11.06 134.15 10.63 132.35 10.63C126.71 10.63 122.8 14.8 122.8 20.84C122.8 26.74 126.71 31.09 132 31.09C134.1 31.09 135.73 30.54 137.49 29.13C137.49 29.24 137.49 29.77 137.49 30.72L143.68 30.72L143.68 1.59L137.49 1.59" id="f1TQvPt3xV"></path><path d="M157.11 14.33C159.5 14.33 161.14 15.96 161.4 18.65C160.83 18.65 157.97 18.65 152.84 18.65C154.06 15.77 155.49 14.33 157.11 14.33ZM156.68 10.64C150.61 10.64 146.29 14.93 146.29 20.97C146.29 27.05 150.79 31.08 157.71 31.08C159.25 31.08 162.97 31.08 166.52 28.46C166.52 28.08 166.52 25 166.52 24.61C163.62 26.68 161.69 27.39 159.21 27.39C155.32 27.39 152.92 25.37 152.71 21.92C154.12 21.92 165.44 21.92 166.85 21.92C167.15 14.72 162.42 10.64 156.68 10.64" id="c1ow226KsB"></path><path d="M176.12 16.65C176.17 16.65 176.2 16.65 176.21 16.65C178.04 12.54 180.1 10.62 182.49 10.62C183.72 10.62 184.79 11.09 186.58 12.42C186.41 12.96 185.05 17.34 184.88 17.89C183.26 16.86 182.19 16.43 181.21 16.43C178.94 16.43 177.48 18.57 176.12 22.19C176.12 22.76 176.12 25.59 176.12 30.7L169.92 30.7L169.92 10.98L176.12 10.98L176.12 16.65" id="b1JZ5Ppy78"></path><path d="M120.56 2.7C121.14 4.24 120.1 6.37 118.23 7.47C116.36 8.57 114.39 8.22 113.81 6.69C113.22 5.16 114.26 3.02 116.13 1.92C118 0.82 119.98 1.17 120.56 2.7" id="b2pHPisNgf"></path><path d="M65.96 18.17C65.96 12.83 62.33 10.64 58.74 10.64C56.3 10.64 54.3 11.67 52.51 13.93C52.5 13.93 52.47 13.93 52.42 13.93L52.42 1.59L46.23 1.59L46.23 30.67L52.42 30.67C52.42 23.17 52.42 19 52.42 18.17C53.87 16.07 55.11 15.18 56.56 15.18C58.49 15.18 59.77 16.55 59.77 19.49C59.77 20.19 59.77 25.73 59.77 26.42C61.84 25.36 63.96 24.7 65.96 24.46C65.96 24.04 65.96 21.94 65.96 18.17" id="d7LC7PYtI"></path><path d="M81.49 10.63C78.97 10.63 77.05 11.57 75.07 13.82C75.07 13.63 75.07 12.69 75.07 11L68.88 11C68.88 19.04 68.88 23.51 68.88 24.4C71.03 24.62 73.76 25.6 75.07 27.23C75.07 26.31 75.07 18.94 75.07 18.02C76.7 15.57 77.86 14.76 79.4 14.76C81.15 14.76 82.48 15.92 82.48 18.7C82.48 19.5 82.48 23.49 82.48 30.67L88.68 30.67C88.68 23.18 88.68 19.02 88.68 18.19C88.68 12.38 84.57 10.63 81.49 10.63" id="e2CJoPtTAm"></path><path d="M92.1 36.34L84.9 36.34L84.9 41.45L91.84 41.45L91.84 43.64L84.9 43.64L84.9 48.92L92.31 48.92L92.31 51.11L82.49 51.11L82.49 34.15L92.1 34.15L92.1 36.34" id="f2rZLsh5wJ"></path><path d="M100.18 51.12L100.18 34.14L97.97 34.14L97.97 51.12L100.18 51.12Z" id="aqJXWd5VA"></path><path d="M113.69 44.38C113.13 44.38 108.64 44.38 108.08 44.38C108.38 42.61 109.4 41.61 111.09 41.61C112.65 41.61 113.62 42.69 113.69 44.38ZM108.04 45.85C112.75 45.85 115.37 45.85 115.89 45.85C115.89 41.71 114 39.71 111.04 39.71C107.96 39.71 105.83 41.98 105.83 45.37C105.83 48.47 107.76 51.33 111.23 51.33C113.12 51.33 114.34 50.91 115.7 50.01C115.7 49.79 115.7 48.08 115.7 47.86C114.39 48.72 113.12 49.21 111.78 49.21C109.65 49.21 108.38 48.07 108.04 45.85" id="a1xwYrt0E5"></path><path d="M130.28 42.86C129.01 42 128.17 41.74 127.2 41.74C125.18 41.74 123.79 43.29 123.79 45.55C123.79 47.86 125.27 49.25 127.57 49.25C128.52 49.25 129.42 49.01 130.53 48.51C130.53 48.73 130.53 50.47 130.53 50.69C129.78 51.04 128.37 51.33 127.2 51.33C123.86 51.33 121.55 49.03 121.55 45.75C121.55 42.05 123.66 39.71 127.05 39.71C128.34 39.71 129.21 40.01 130.28 40.48C130.28 40.64 130.28 41.43 130.28 42.86" id="hHdUnfssJ"></path><path d="M140.32 39.93L143.86 39.93L143.86 41.91L140.32 41.91C140.32 45.36 140.32 47.27 140.32 47.65C140.32 48.97 141.27 49.35 141.92 49.35C142.71 49.35 143.54 49.07 144.43 48.52C144.43 48.72 144.43 50.38 144.43 50.58C143.65 51.01 142.47 51.33 141.74 51.33C139.34 51.33 138.13 49.84 138.13 47.82C138.13 47.43 138.13 45.46 138.13 41.91L136.18 41.91L136.18 41.67L140.32 37.62L140.32 39.93" id="c2LyTPzf0K"></path><path d="M152.29 39.93L152.29 42.52C152.31 42.52 152.33 42.52 152.33 42.52C153.46 40.53 154.52 39.71 155.56 39.71C156.46 39.71 157.3 40.13 158.23 41.01C158.11 41.2 157.17 42.76 157.06 42.95C156.39 42.29 155.52 41.83 155 41.83C153.48 41.83 152.29 43.37 152.29 45.28C152.29 45.67 152.29 47.62 152.29 51.12L150.09 51.12L150.09 39.93L152.29 39.93" id="d3LDDj3LRS"></path><path d="M180.81 42.86C179.54 42 178.69 41.74 177.72 41.74C175.71 41.74 174.32 43.29 174.32 45.55C174.32 47.86 175.81 49.25 178.09 49.25C179.04 49.25 179.93 49.01 181.06 48.51C181.06 48.73 181.06 50.47 181.06 50.69C180.3 51.04 178.88 51.33 177.72 51.33C174.39 51.33 172.06 49.03 172.06 45.75C172.06 42.05 174.19 39.71 177.57 39.71C178.87 39.71 179.73 40.01 180.81 40.48C180.81 40.64 180.81 41.43 180.81 42.86" id="b3SPyxww3N"></path><path d="M166.27 51.12L166.27 39.93L164.07 39.93L164.07 51.12L166.27 51.12Z" id="lA39xQU3"></path><path d="M166.35 35.91C166.56 36.45 166.18 37.21 165.52 37.6C164.85 37.99 164.15 37.86 163.95 37.32C163.75 36.78 164.11 36.02 164.78 35.63C165.44 35.23 166.14 35.36 166.35 35.91" id="b1IKw8beH"></path><path d="M66.99 37.05C66.93 37.12 66.9 37.19 66.88 37.33C66.68 38.08 65.1 44.08 64.9 44.83C64.44 47.46 61.21 50.08 57 50.08C56.61 50.08 54.66 50.08 51.15 50.08L52.16 46.23C54.42 46.23 55.67 46.23 55.92 46.23C56.31 46.23 56.61 46.09 56.86 45.81C56.95 45.7 57.07 45.53 57.09 45.35C57.24 44.7 58.49 39.46 58.65 38.8C59.11 36.17 61.89 33.27 66.09 33.27C66.49 33.27 68.49 33.27 72.09 33.27L71.32 36.81L67.7 36.81C67.33 36.85 67.09 36.93 66.99 37.05ZM69.05 41.38L69.72 38.95C73.37 38.95 75.4 38.95 75.81 38.95C76.56 35.44 75.97 32.18 73.83 30.05C69.51 25.73 60.48 27.2 53.75 33.64C52.7 34.64 51.81 35.72 51 36.82C51.24 36.82 52.47 36.82 54.66 36.82L53.81 39.25C51.18 39.25 49.73 39.25 49.43 39.25C49.01 40.02 48.62 40.78 48.32 41.55C48.67 41.55 50.4 41.55 53.51 41.55L52.68 43.98C49.62 43.98 47.92 43.98 47.58 43.98C46.71 47.69 47.26 51.15 49.46 53.35C53.72 57.62 62.73 56.12 69.46 49.68C70.64 48.56 71.61 47.35 72.49 46.11C72.17 46.11 70.6 46.11 67.78 46.11L68.5 43.68C71.8 43.68 73.63 43.68 74 43.68C74.41 42.91 74.78 42.15 75.07 41.38C74.67 41.38 72.66 41.38 69.05 41.38" id="bR65DuIsz"></path></defs><g><g><use xlink:href="#a2ZpXg6Fs" opacity="1" fill="#dbdbdb" fill-opacity="1"></use><g><use xlink:href="#a2ZpXg6Fs" opacity="1" fill-opacity="0" stroke="#000000" stroke-width="1" stroke-opacity="0"></use></g></g><g><use xlink:href="#a1trvTccKR" opacity="1" fill="#dbdbdb" fill-opacity="1"></use><g><use xlink:href="#a1trvTccKR" opacity="1" fill-opacity="0" stroke="#000000" stroke-width="1" stroke-opacity="0"></use></g></g><g><use xlink:href="#a8AvxbDs4" opacity="1" fill="#dbdbdb" fill-opacity="1"></use><g><use xlink:href="#a8AvxbDs4" opacity="1" fill-opacity="0" stroke="#000000" stroke-width="1" stroke-opacity="0"></use></g></g><g><use xlink:href="#a1ngPhHnEm" opacity="1" fill="#dbdbdb" fill-opacity="1"></use><g><use xlink:href="#a1ngPhHnEm" opacity="1" fill-opacity="0" stroke="#000000" stroke-width="1" stroke-opacity="0"></use></g></g><g><use xlink:href="#f1TQvPt3xV" opacity="1" fill="#dbdbdb" fill-opacity="1"></use><g><use xlink:href="#f1TQvPt3xV" opacity="1" fill-opacity="0" stroke="#000000" stroke-width="1" stroke-opacity="0"></use></g></g><g><use xlink:href="#c1ow226KsB" opacity="1" fill="#dbdbdb" fill-opacity="1"></use><g><use xlink:href="#c1ow226KsB" opacity="1" fill-opacity="0" stroke="#000000" stroke-width="1" stroke-opacity="0"></use></g></g><g><use xlink:href="#b1JZ5Ppy78" opacity="1" fill="#dbdbdb" fill-opacity="1"></use><g><use xlink:href="#b1JZ5Ppy78" opacity="1" fill-opacity="0" stroke="#000000" stroke-width="1" stroke-opacity="0"></use></g></g><g><use xlink:href="#b2pHPisNgf" opacity="1" fill="#dbdbdb" fill-opacity="1"></use><g><use xlink:href="#b2pHPisNgf" opacity="1" fill-opacity="0" stroke="#000000" stroke-width="1" stroke-opacity="0"></use></g></g><g><use xlink:href="#d7LC7PYtI" opacity="1" fill="#dbdbdb" fill-opacity="1"></use><g><use xlink:href="#d7LC7PYtI" opacity="1" fill-opacity="0" stroke="#000000" stroke-width="1" stroke-opacity="0"></use></g></g><g><use xlink:href="#e2CJoPtTAm" opacity="1" fill="#dbdbdb" fill-opacity="1"></use><g><use xlink:href="#e2CJoPtTAm" opacity="1" fill-opacity="0" stroke="#000000" stroke-width="1" stroke-opacity="0"></use></g></g><g><use xlink:href="#f2rZLsh5wJ" opacity="1" fill="#dbdbdb" fill-opacity="1"></use><g><use xlink:href="#f2rZLsh5wJ" opacity="1" fill-opacity="0" stroke="#000000" stroke-width="1" stroke-opacity="0"></use></g></g><g><use xlink:href="#aqJXWd5VA" opacity="1" fill="#dbdbdb" fill-opacity="1"></use><g><use xlink:href="#aqJXWd5VA" opacity="1" fill-opacity="0" stroke="#000000" stroke-width="1" stroke-opacity="0"></use></g></g><g><use xlink:href="#a1xwYrt0E5" opacity="1" fill="#dbdbdb" fill-opacity="1"></use><g><use xlink:href="#a1xwYrt0E5" opacity="1" fill-opacity="0" stroke="#000000" stroke-width="1" stroke-opacity="0"></use></g></g><g><use xlink:href="#hHdUnfssJ" opacity="1" fill="#dbdbdb" fill-opacity="1"></use><g><use xlink:href="#hHdUnfssJ" opacity="1" fill-opacity="0" stroke="#000000" stroke-width="1" stroke-opacity="0"></use></g></g><g><use xlink:href="#c2LyTPzf0K" opacity="1" fill="#dbdbdb" fill-opacity="1"></use><g><use xlink:href="#c2LyTPzf0K" opacity="1" fill-opacity="0" stroke="#000000" stroke-width="1" stroke-opacity="0"></use></g></g><g><use xlink:href="#d3LDDj3LRS" opacity="1" fill="#dbdbdb" fill-opacity="1"></use><g><use xlink:href="#d3LDDj3LRS" opacity="1" fill-opacity="0" stroke="#000000" stroke-width="1" stroke-opacity="0"></use></g></g><g><use xlink:href="#b3SPyxww3N" opacity="1" fill="#dbdbdb" fill-opacity="1"></use><g><use xlink:href="#b3SPyxww3N" opacity="1" fill-opacity="0" stroke="#000000" stroke-width="1" stroke-opacity="0"></use></g></g><g><use xlink:href="#lA39xQU3" opacity="1" fill="#dbdbdb" fill-opacity="1"></use><g><use xlink:href="#lA39xQU3" opacity="1" fill-opacity="0" stroke="#000000" stroke-width="1" stroke-opacity="0"></use></g></g><g><use xlink:href="#b1IKw8beH" opacity="1" fill="#dbdbdb" fill-opacity="1"></use><g><use xlink:href="#b1IKw8beH" opacity="1" fill-opacity="0" stroke="#000000" stroke-width="1" stroke-opacity="0"></use></g></g><g><use xlink:href="#bR65DuIsz" opacity="1" fill="#dbdbdb" fill-opacity="1"></use><g><use xlink:href="#bR65DuIsz" opacity="1" fill-opacity="0" stroke="#000000" stroke-width="1" stroke-opacity="0"></use></g></g></g></svg>