<?xml version="1.0" encoding="UTF-8" standalone="no"?>
<!DOCTYPE svg PUBLIC "-//W3C//DTD SVG 1.1//EN" "http://www.w3.org/Graphics/SVG/1.1/DTD/svg11.dtd">
<svg version="1.1" xmlns="http://www.w3.org/2000/svg" xmlns:xlink="http://www.w3.org/1999/xlink" preserveAspectRatio="xMidYMid meet" viewBox="25.840864000000057 33.794663999999976 739.9192320000002 121.089032" width="735.92" height="117.09"><defs><path d="M754.15 60.82C742.8 56.53 732.69 54.37 723.84 54.37C718.6 54.37 714.43 55.34 711.29 57.21C708.15 59.11 706.55 61.43 706.55 64.18C706.55 67.84 710.09 71.09 717.23 74C719.29 75.01 735.77 83.03 737.83 84.03C754.49 91.97 762.76 102.52 762.76 115.77C762.76 126.78 758.38 135.56 749.53 142.07C740.75 148.63 728.92 151.88 714.2 151.88C707.41 151.88 701.31 151.59 695.89 150.98C690.48 150.4 684.25 149.2 677.34 147.48C677.34 145.19 677.34 126.84 677.34 124.55C690.01 128.83 701.54 131 711.92 131C724.31 131 730.48 127.41 730.48 120.17C730.48 116.56 727.95 113.65 722.82 111.37C720.54 110.39 702.23 102.59 699.94 101.61C691.49 97.8 685.22 93.17 681.11 87.69C677.07 82.15 675.01 75.81 675.01 68.57C675.01 58.43 679.28 50.26 687.73 44.05C696.23 37.88 707.52 34.79 721.56 34.79C726.12 34.79 731.38 35.2 737.2 35.94C743.08 36.74 748.72 37.71 754.15 38.9C754.15 38.9 754.15 58.63 754.15 60.82Z" id="b4m0z4nr0f"></path><path d="M105.94 60.82C94.58 56.53 84.49 54.37 75.64 54.37C70.38 54.37 66.23 55.34 63.09 57.21C59.95 59.11 58.35 61.43 58.35 64.18C58.35 67.84 61.94 71.09 69.07 74C71.13 75.01 87.62 83.03 89.68 84.03C106.28 91.97 114.56 102.52 114.56 115.77C114.56 126.78 110.16 135.56 101.37 142.07C92.53 148.63 80.77 151.88 66 151.88C59.21 151.88 53.09 151.59 47.67 150.98C42.26 150.4 36.09 149.2 29.14 147.48C29.14 145.19 29.14 126.84 29.14 124.55C41.85 128.83 53.38 131 63.7 131C76.09 131 82.26 127.41 82.26 120.17C82.26 116.56 79.75 113.65 74.67 111.37C72.38 110.39 54.07 102.59 51.78 101.61C43.27 97.8 37 93.17 32.96 87.69C28.85 82.15 26.84 75.81 26.84 68.57C26.84 58.43 31.08 50.26 39.57 44.05C48.01 37.88 59.32 34.79 73.36 34.79C77.97 34.79 83.16 35.2 89.05 35.94C94.87 36.74 100.52 37.71 105.94 38.9C105.94 38.9 105.94 58.63 105.94 60.82Z" id="a5SEx4JKRU"></path><path d="M163.11 36.85L163.11 149.83L129.55 149.83L129.55 36.85L163.11 36.85Z" id="c775HQnknk"></path><path d="M271.24 57.73L221.37 57.73L221.37 82.79L264.63 82.79L264.63 101.61L221.37 101.61L221.37 127.91L272.26 127.91L272.26 149.83L189.07 149.83L189.07 36.85L271.24 36.85L271.24 57.73Z" id="b1SHd926VX"></path><path d="M427.93 149.83L396.59 149.83L396.59 75.31L364.08 150.86L344.74 150.86L313.47 75.31L313.47 149.83L290.81 149.83L290.81 36.85L331.78 36.85L359.75 106.01L389.01 36.85L427.93 36.85L427.93 149.83Z" id="a3VqwxFgLc"></path><path d="M536.01 57.73L486.41 57.73L486.41 82.79L529.66 82.79L529.66 101.61L486.41 101.61L486.41 127.91L537.03 127.91L537.03 149.83L453.84 149.83L453.84 36.85L536.01 36.85L536.01 57.73Z" id="a1ay0AFOrT"></path><path d="M653.77 149.83L618.17 149.83L578.22 77.37L578.22 149.83L555.58 149.83L555.58 36.85L592.22 36.85L631.13 108.07L631.13 36.85L653.77 36.85L653.77 149.83Z" id="i2oSkJ72V"></path></defs><g><g><use xlink:href="#b4m0z4nr0f" opacity="1" fill="#dbdbdb" fill-opacity="1"></use><g><use xlink:href="#b4m0z4nr0f" opacity="1" fill-opacity="0" stroke="#000000" stroke-width="1" stroke-opacity="0"></use></g></g><g><use xlink:href="#a5SEx4JKRU" opacity="1" fill="#dbdbdb" fill-opacity="1"></use><g><use xlink:href="#a5SEx4JKRU" opacity="1" fill-opacity="0" stroke="#000000" stroke-width="1" stroke-opacity="0"></use></g></g><g><use xlink:href="#c775HQnknk" opacity="1" fill="#dbdbdb" fill-opacity="1"></use><g><use xlink:href="#c775HQnknk" opacity="1" fill-opacity="0" stroke="#000000" stroke-width="1" stroke-opacity="0"></use></g></g><g><use xlink:href="#b1SHd926VX" opacity="1" fill="#dbdbdb" fill-opacity="1"></use><g><use xlink:href="#b1SHd926VX" opacity="1" fill-opacity="0" stroke="#000000" stroke-width="1" stroke-opacity="0"></use></g></g><g><use xlink:href="#a3VqwxFgLc" opacity="1" fill="#dbdbdb" fill-opacity="1"></use><g><use xlink:href="#a3VqwxFgLc" opacity="1" fill-opacity="0" stroke="#000000" stroke-width="1" stroke-opacity="0"></use></g></g><g><use xlink:href="#a1ay0AFOrT" opacity="1" fill="#dbdbdb" fill-opacity="1"></use><g><use xlink:href="#a1ay0AFOrT" opacity="1" fill-opacity="0" stroke="#000000" stroke-width="1" stroke-opacity="0"></use></g></g><g><use xlink:href="#i2oSkJ72V" opacity="1" fill="#dbdbdb" fill-opacity="1"></use><g><use xlink:href="#i2oSkJ72V" opacity="1" fill-opacity="0" stroke="#000000" stroke-width="1" stroke-opacity="0"></use></g></g></g></svg>