<?xml version="1.0" encoding="UTF-8" standalone="no"?>
<!DOCTYPE svg PUBLIC "-//W3C//DTD SVG 1.1//EN" "http://www.w3.org/Graphics/SVG/1.1/DTD/svg11.dtd">
<svg version="1.1" xmlns="http://www.w3.org/2000/svg" xmlns:xlink="http://www.w3.org/1999/xlink" preserveAspectRatio="xMidYMid meet" viewBox="-1.002576 -0.9998 303.99257600000004 82.01280000000001" width="299.99" height="78.01"><defs><path d="M79.6 0C76.81 0 74.58 2.24 74.58 5.02C74.58 7.8 76.81 10.05 79.6 10.05C82.38 10.05 84.61 7.8 84.61 5.02C84.61 2.24 82.38 0 79.6 0M63.92 0C61.14 0 58.88 2.24 58.88 5.02C58.88 7.8 61.14 10.05 63.92 10.05C66.7 10.05 68.93 7.8 68.93 5.02C68.93 2.24 66.7 0 63.92 0M79.06 30.43C79.06 37.56 76.52 41.51 71.71 41.51C67.85 41.51 64.24 39.05 64.24 30.64C64.24 23.3 67.27 19.84 71.71 19.84C76.88 19.84 79.06 24.08 79.06 30.43M90 30.71C90 18.22 79.7 13.77 71.71 13.77C62.11 13.77 53.3 19.56 53.3 30.64C53.3 40.88 61.05 47.59 71.71 47.59C78.92 47.59 90 43.63 90 30.71" id="ciNjCfRKt"></path><path d="M56.5 72.63C57.56 69.68 58.15 68.05 58.27 67.72C58.5 67.02 58.69 66.36 58.84 65.72C58.85 65.72 58.9 65.72 58.9 65.72C59.05 66.36 59.27 67.02 59.5 67.74C59.62 68.07 60.2 69.69 61.26 72.63L56.5 72.63ZM65.66 77.8L60.31 63.01L57.65 63.01L52.34 77.8L54.76 77.8L55.89 74.53L61.88 74.53L63 77.8M77.19 77.78L77.19 75.69L72.12 75.69L72.12 62.99L69.72 62.99L69.72 77.78M88.62 77.78L88.62 75.69L83.55 75.69L83.55 62.99L81.15 62.99L81.15 77.78M100.58 77.78L100.58 75.74L95.17 75.74L95.17 71.14L100.33 71.14L100.33 69.19L95.17 69.19L95.17 64.98L100.58 64.98L100.58 62.99L92.79 62.99L92.79 77.78M114.11 73.37C114.11 68.7 107.57 69.78 107.57 66.82C107.57 65.59 108.42 64.76 110.27 64.76C111.16 64.76 112.03 64.91 112.82 65.18C112.84 64.97 113.03 63.29 113.05 63.08C112.25 62.9 111.23 62.79 110.4 62.79C106.98 62.79 105.04 64.56 105.04 67.1C105.04 71.88 111.52 70.57 111.52 73.68C111.52 75.3 110.18 75.93 108.63 75.93C107.51 75.93 106.45 75.69 105.49 75.32C105.46 75.55 105.24 77.37 105.21 77.6C106.17 77.86 107.27 78.01 108.55 78.01C111.91 78.01 114.11 76.07 114.11 73.37M142.79 77.78L140.54 62.99L137.67 62.99C135.92 68.17 134.95 71.04 134.76 71.62C134.42 72.63 134.21 73.46 133.93 74.56C133.93 74.56 133.91 74.56 133.91 74.56C133.66 73.44 133.34 72.36 133.08 71.53C132.89 70.96 131.94 68.11 130.24 62.99L127.39 62.99L125.18 77.78L127.6 77.78C128.18 73.19 128.5 70.64 128.56 70.13C128.71 68.73 128.86 67.57 128.94 66.3C128.94 66.3 128.98 66.3 128.98 66.3C129.22 67.41 129.52 68.55 129.94 69.78C130.12 70.31 130.99 72.98 132.57 77.78L135.06 77.78C136.73 72.62 137.65 69.76 137.84 69.19C138.23 68.07 138.44 67.13 138.61 66.3C138.61 66.3 138.65 66.3 138.65 66.3C138.76 67.26 138.88 68.42 139.12 69.91C139.2 70.43 139.58 73.06 140.26 77.78M149.95 77.78L149.95 63.01L147.57 63.01L147.57 77.78L149.95 77.78ZM164.82 65L164.82 62.99L154.31 62.99L154.31 65L158.36 65L158.36 77.78L160.74 77.78L160.74 65M184.22 73.37C184.22 68.7 177.67 69.78 177.67 66.82C177.67 65.59 178.52 64.76 180.37 64.76C181.26 64.76 182.13 64.91 182.92 65.18C182.94 64.97 183.13 63.29 183.15 63.08C182.35 62.9 181.33 62.79 180.5 62.79C177.08 62.79 175.15 64.56 175.15 67.1C175.15 71.88 181.63 70.57 181.63 73.68C181.63 75.3 180.29 75.93 178.74 75.93C177.63 75.93 176.55 75.69 175.59 75.32C175.56 75.55 175.35 77.37 175.32 77.6C176.27 77.86 177.38 78.01 178.65 78.01C182.01 78.01 184.22 76.07 184.22 73.37M192.59 70.4C192.25 70.4 191.86 70.36 191.55 70.31C191.55 69.77 191.55 65.44 191.55 64.9C191.93 64.86 192.31 64.86 192.76 64.86C194.92 64.86 195.9 65.87 195.9 67.55C195.9 69.28 194.58 70.38 192.59 70.4ZM198.36 67.36C198.36 64.62 196.45 62.91 192.95 62.91C191.57 62.91 190.29 62.95 189.15 63C189.15 63.98 189.15 68.91 189.15 77.78L191.55 77.78C191.55 74.51 191.55 72.69 191.55 72.33C191.91 72.37 192.31 72.37 192.63 72.37C196.07 72.37 198.36 70.22 198.36 67.36M203.89 72.63C204.95 69.68 205.53 68.05 205.65 67.72C205.88 67.02 206.08 66.36 206.22 65.72C206.23 65.72 206.28 65.72 206.29 65.72C206.44 66.36 206.65 67.02 206.88 67.74C207 68.07 207.59 69.69 208.65 72.63L203.89 72.63ZM213.04 77.8L207.69 63.01L205.03 63.01L199.72 77.8L202.15 77.8L203.27 74.53L209.26 74.53L210.39 77.8M229.08 77.78L229.08 62.99L226.77 62.99C226.77 65.62 226.77 67.08 226.77 67.37C226.77 69.54 226.83 72.71 226.92 74.4C226.36 73.33 225.77 72.15 225.11 71.05C224.78 70.51 223.15 67.83 220.22 62.99L217.1 62.99L217.1 77.78L219.42 77.78C219.42 74.79 219.42 73.13 219.42 72.8C219.42 70.7 219.37 67.7 219.29 66.25C219.76 67.24 220.29 68.29 220.92 69.36C221.26 69.92 222.94 72.73 225.98 77.78M247.14 77.78L247.14 62.99L244.82 62.99C244.82 65.62 244.82 67.08 244.82 67.37C244.82 69.54 244.89 72.71 244.97 74.4C244.42 73.33 243.82 72.15 243.17 71.05C242.84 70.51 241.21 67.83 238.28 62.99L235.16 62.99L235.16 77.78L237.47 77.78C237.47 74.79 237.47 73.13 237.47 72.8C237.47 70.7 237.43 67.7 237.35 66.25C237.81 67.24 238.34 68.29 238.98 69.36C239.32 69.92 241.01 72.73 244.06 77.78M264.94 72.09L264.94 63L262.6 63C262.6 68.56 262.6 71.65 262.6 72.27C262.6 75.03 261.5 76.04 259.1 76.04C256.36 76.04 255.7 74.55 255.7 72.57C255.7 71.93 255.7 68.74 255.7 63L253.3 63C253.3 68.85 253.3 72.1 253.3 72.75C253.3 75.47 254.3 78.01 258.93 78.01C262.82 78.01 264.94 76.04 264.94 72.09M282.72 77.78L282.72 62.99L280.41 62.99C280.41 65.62 280.41 67.08 280.41 67.37C280.41 69.54 280.47 72.71 280.55 74.4C280 73.33 279.41 72.15 278.75 71.05C278.42 70.51 276.79 67.83 273.86 62.99L270.74 62.99L270.74 77.78L273.05 77.78C273.05 74.79 273.05 73.13 273.05 72.8C273.05 70.7 273.01 67.7 272.93 66.25C273.39 67.24 273.9 68.29 274.56 69.36C274.9 69.92 276.59 72.73 279.64 77.78M299.99 77.11L299.99 70.17L297.61 70.17C297.61 73.39 297.61 75.18 297.61 75.54C296.93 75.76 296.19 75.89 295.32 75.89C292.15 75.89 290.2 73.89 290.2 70.47C290.2 66.82 292.53 64.89 295.53 64.89C296.91 64.89 298.16 65.15 299.33 65.61C299.38 65.39 299.79 63.64 299.84 63.42C298.61 63.05 297.19 62.81 295.7 62.81C290.71 62.81 287.63 66.14 287.63 70.72C287.63 75.27 290.45 78.01 295.04 78.01C296.72 78.01 298.53 77.68 299.99 77.11M185.81 27.35C186.19 23.24 188.57 20.87 192.23 20.87C195.82 20.87 198.26 23.31 198.64 27.35C197.78 27.35 193.51 27.35 185.81 27.35M204.82 43.2C199.98 46.09 195.22 46.09 193.12 46.09C182.73 46.09 176 40.06 176 30.82C176 21.77 182.47 15.35 191.59 15.35C200.19 15.35 207.31 21.45 206.86 32.23C204.74 32.23 187.74 32.23 185.62 32.23C185.94 37.49 189.53 40.57 195.37 40.57C198.09 40.57 200.11 40.17 202.83 38.64M25.15 29.98L32.54 46.09L36.96 46.09L50.24 15.93L41.4 15.93L34.52 32.23L27.97 15.93L22.32 15.93L15.72 32.23L8.83 15.93L0 15.93L13.34 46.09L17.69 46.09L25.15 29.98M108.02 2.42L98.71 2.42L98.71 45.52L108.02 45.52C108.02 34.2 108.02 27.91 108.02 26.66C110.21 23.51 112.05 22.16 114.24 22.16C117.13 22.16 119.06 24.22 119.06 28.64C119.06 29.77 119.06 35.4 119.06 45.52L128.37 45.52C128.37 34.2 128.37 27.91 128.37 26.66C128.37 18.63 122.91 15.36 117.51 15.36C113.86 15.36 110.84 16.9 108.15 20.3C108.14 20.3 108.1 20.3 108.02 20.3L108.02 2.42M147.85 15.93L138.54 15.93L138.54 45.52L147.85 45.52C147.85 34.08 147.85 27.73 147.85 26.46C150.29 22.8 152.01 21.58 154.33 21.58C156.96 21.58 158.96 23.31 158.96 27.49C158.96 28.69 158.96 34.7 158.96 45.52L168.26 45.52C168.26 34.24 168.26 27.97 168.26 26.72C168.26 17.99 162.1 15.36 157.47 15.36C153.69 15.36 150.8 16.77 147.85 20.17C147.85 19.89 147.85 18.47 147.85 15.93M224.05 15.93L214.74 15.93L214.74 45.52L224.05 45.52C224.05 37.86 224.05 33.6 224.05 32.75C224.07 31.09 227.11 24.08 231.69 24.08C233.16 24.09 234.78 24.72 237.2 26.26C237.46 25.44 239.51 18.87 239.77 18.05C237.07 16.06 235.48 15.36 233.61 15.36C230.02 15.36 226.94 18.24 224.17 24.41C224.16 24.41 224.12 24.41 224.05 24.41L224.05 15.93" id="a5ezDuwVm"></path></defs><g><g><use xlink:href="#ciNjCfRKt" opacity="1" fill="#dbdbdb" fill-opacity="1"></use><g><use xlink:href="#ciNjCfRKt" opacity="1" fill-opacity="0" stroke="#000000" stroke-width="1" stroke-opacity="0"></use></g></g><g><use xlink:href="#a5ezDuwVm" opacity="1" fill="#dbdbdb" fill-opacity="1"></use><g><use xlink:href="#a5ezDuwVm" opacity="1" fill-opacity="0" stroke="#000000" stroke-width="1" stroke-opacity="0"></use></g></g></g></svg>