<?xml version="1.0" encoding="UTF-8" standalone="no"?>
<!DOCTYPE svg PUBLIC "-//W3C//DTD SVG 1.1//EN" "http://www.w3.org/Graphics/SVG/1.1/DTD/svg11.dtd">
<svg version="1.1" xmlns="http://www.w3.org/2000/svg" xmlns:xlink="http://www.w3.org/1999/xlink" preserveAspectRatio="xMidYMid meet" viewBox="10.604395604395604 272.23076923076917 620.7912087912088 97.89010989010995" width="616.79" height="93.89"><defs><path d="M284.13 320C293.27 330.9 304.88 350.95 311.91 366.07C314.62 366.07 336.28 366.07 338.99 366.07C331.25 348.48 315.78 324.92 307.34 315.43C319.3 302.77 329.49 288.7 338.29 273.23C335.58 273.23 313.92 273.23 311.21 273.23C303.47 286.59 294.68 298.9 284.13 310.15C284.13 307.74 284.13 295.67 284.13 273.93L260.92 273.93L260.92 366.42L284.13 366.42L284.13 320" id="aoOMySeKz"></path><path d="M71.38 273.93C66.81 286.59 61.19 298.9 54.51 310.51C47.82 298.9 41.85 286.59 37.63 273.93C35.02 273.93 14.21 273.93 11.6 273.93C19.34 293.98 29.89 312.62 43.25 329.49C43.25 331.96 43.25 344.26 43.25 366.42L66.46 366.42C66.46 344.26 66.46 331.96 66.46 329.49C79.82 312.62 90.37 293.98 98.11 273.93C96.33 273.93 87.42 273.93 71.38 273.93" id="a2a7CN6gm"></path><path d="M119.21 273.93C107.6 297.14 93.89 336.53 86.86 366.42C89.32 366.42 109.01 366.42 111.47 366.42C112.53 361.49 113.93 356.22 115.34 350.95C118.61 350.95 144.77 350.95 148.04 350.95C149.45 356.22 150.86 361.49 151.91 366.42C154.37 366.42 174.07 366.42 176.53 366.42C169.49 336.18 155.43 296.79 144.18 273.93C142.51 273.93 134.19 273.93 119.21 273.93M131.52 297.49C135.38 308.75 139.25 320.7 142.77 332.66C141.27 332.66 133.77 332.66 120.26 332.66C125.19 316.48 128.94 304.76 131.52 297.49Z" id="eejgJkohf"></path><path d="M232.79 317.19C219.71 311.7 212.44 308.65 210.99 308.04C205.71 305.58 203.25 304.18 203.25 300.31C203.25 295.74 205.01 293.98 208.53 293.27C215.56 292.22 230.33 293.27 244.04 296.44C244.04 294.4 244.04 278.08 244.04 276.04C233.85 274.29 223.65 273.23 213.1 273.23C207.82 273.23 202.55 273.58 197.63 274.29C185.32 276.4 179.34 283.78 179.34 299.25C179.34 310.15 183.21 318.59 194.11 323.16C196.29 324.08 213.73 331.39 215.91 332.31C221.19 334.77 223.65 336.18 223.65 340.04C223.65 344.62 221.89 346.37 218.37 347.08C212.4 347.78 196.92 347.08 182.86 343.91C182.86 345.95 182.86 362.27 182.86 364.31C193.05 366.07 203.25 367.12 213.8 367.12C219.08 367.12 224.35 366.77 229.27 365.71C241.58 363.6 247.56 356.57 247.56 340.75C247.21 328.44 243.34 321.76 232.79 317.19" id="a22yOxN5Z4"></path><path d="M365.01 273.93C353.41 297.14 339.69 336.53 332.66 366.42C335.12 366.42 354.81 366.42 357.27 366.42C358.33 361.49 359.74 356.22 361.14 350.95C364.41 350.95 390.58 350.95 393.85 350.95C395.25 356.22 396.66 361.49 397.71 366.42C400.18 366.42 419.87 366.42 422.33 366.42C415.3 336.18 401.58 296.79 389.98 273.93C388.31 273.93 379.99 273.93 365.01 273.93M377.67 297.49C381.54 308.75 385.41 320.7 388.92 332.66C387.42 332.66 379.92 332.66 366.42 332.66L366.42 332.66C371.34 316.48 375.09 304.76 377.67 297.49Z" id="a1XNKYlnu4"></path><path d="M520.09 273.93C516.57 292.92 511.65 316.13 506.02 336.53C500.4 315.78 494.77 292.57 491.6 273.93C489.35 273.93 471.35 273.93 469.1 273.93C465.58 292.57 460.31 315.78 454.68 336.53C449.41 315.78 444.13 292.92 440.62 273.93C438.15 273.93 418.46 273.93 416 273.93C421.98 301.71 433.58 341.8 442.02 366.42C444.55 366.42 464.81 366.42 467.34 366.42C471.21 352.7 475.78 334.07 480 315.78C484.22 334.07 488.79 352.35 492.66 366.42C495.19 366.42 515.45 366.42 517.98 366.42C526.42 341.8 538.02 301.71 544 273.93C542.41 273.93 534.44 273.93 520.09 273.93" id="aCiJkQGh"></path><path d="M603.78 366.42C618.55 366.42 626.75 366.42 628.4 366.42C621.36 336.18 607.65 296.79 596.04 273.93C593.58 273.93 573.89 273.93 571.43 273.93C559.82 297.14 545.76 336.53 539.08 366.42C541.54 366.42 561.23 366.42 563.69 366.42C564.75 361.49 566.15 356.22 567.56 350.95C570.83 350.95 596.99 350.95 600.26 350.95C601.32 356.22 602.73 361.85 603.78 366.42M583.74 297.49C587.6 308.75 591.47 320.7 594.99 332.66C593.49 332.66 585.99 332.66 572.48 332.66C577.41 316.48 581.16 304.76 583.74 297.49Z" id="cAH5kc7sa"></path></defs><g><g><use xlink:href="#aoOMySeKz" opacity="1" fill="#dbdbdb" fill-opacity="1"></use><g><use xlink:href="#aoOMySeKz" opacity="1" fill-opacity="0" stroke="#000000" stroke-width="1" stroke-opacity="0"></use></g></g><g><use xlink:href="#a2a7CN6gm" opacity="1" fill="#dbdbdb" fill-opacity="1"></use><g><use xlink:href="#a2a7CN6gm" opacity="1" fill-opacity="0" stroke="#000000" stroke-width="1" stroke-opacity="0"></use></g></g><g><use xlink:href="#eejgJkohf" opacity="1" fill="#dbdbdb" fill-opacity="1"></use><g><use xlink:href="#eejgJkohf" opacity="1" fill-opacity="0" stroke="#000000" stroke-width="1" stroke-opacity="0"></use></g></g><g><use xlink:href="#a22yOxN5Z4" opacity="1" fill="#dbdbdb" fill-opacity="1"></use><g><use xlink:href="#a22yOxN5Z4" opacity="1" fill-opacity="0" stroke="#000000" stroke-width="1" stroke-opacity="0"></use></g></g><g><use xlink:href="#a1XNKYlnu4" opacity="1" fill="#dbdbdb" fill-opacity="1"></use><g><use xlink:href="#a1XNKYlnu4" opacity="1" fill-opacity="0" stroke="#000000" stroke-width="1" stroke-opacity="0"></use></g></g><g><use xlink:href="#aCiJkQGh" opacity="1" fill="#dbdbdb" fill-opacity="1"></use><g><use xlink:href="#aCiJkQGh" opacity="1" fill-opacity="0" stroke="#000000" stroke-width="1" stroke-opacity="0"></use></g></g><g><use xlink:href="#cAH5kc7sa" opacity="1" fill="#dbdbdb" fill-opacity="1"></use><g><use xlink:href="#cAH5kc7sa" opacity="1" fill-opacity="0" stroke="#000000" stroke-width="1" stroke-opacity="0"></use></g></g></g></svg>