<?xml version="1.0" encoding="UTF-8" standalone="no"?>
<!DOCTYPE svg PUBLIC "-//W3C//DTD SVG 1.1//EN" "http://www.w3.org/Graphics/SVG/1.1/DTD/svg11.dtd">
<svg version="1.1" xmlns="http://www.w3.org/2000/svg" xmlns:xlink="http://www.w3.org/1999/xlink" preserveAspectRatio="xMidYMid meet" viewBox="-1.0000000000018994 236.075714367617 643.9433067435594 134.91344967348894" width="639.94" height="130.91"><defs><path d="M134.65 335.39L134.65 317.48L164.01 257.75L137 257.75L137 239.37L188.88 239.37L188.88 256.07L159.39 315.75L190.24 315.75L190.24 335.39L134.65 335.39ZM237.6 299.58L231.17 257.67L224.71 299.58L237.6 299.58ZM196.95 335.39L217.89 239.28L244.57 239.28L265.3 335.39L242.84 335.39L240.03 316.98L222.39 316.98L219.56 335.39L196.95 335.39ZM275.78 335.39L275.78 239.28L299.17 239.28C310.36 274.81 316.58 294.56 317.82 298.51C316.67 283.56 316.33 275.27 316.17 272.69C315.81 265.47 315.64 259.35 315.64 254.37C315.64 253.37 315.64 248.34 315.64 239.3L335.63 239.3L335.63 335.41L312.21 335.41C300.93 298.82 294.67 278.49 293.42 274.42C294.66 286.33 295.11 295.2 295.3 297.51C295.73 304.96 295.95 312.2 295.96 319.24L295.96 335.44L275.78 335.39ZM386.78 299.58L380.35 257.67L373.89 299.58L386.78 299.58ZM346.15 335.39L367.08 239.28L393.77 239.28L414.5 335.39L392.02 335.39L389.17 316.99L371.53 316.99L368.74 335.41L346.15 335.39ZM448.63 279.32C449.43 279.32 449.88 279.32 449.97 279.32C456.96 279.32 458.87 276.8 459.86 276.51C461.74 274.63 462.76 271.48 462.76 267.09C462.76 262.97 461.8 260.04 459.86 258.33C457.92 256.61 454.62 255.73 449.97 255.73C449.88 255.73 449.43 255.73 448.63 255.73L447.16 255.73L447.16 279.34L448.63 279.32ZM424.98 335.39L424.98 239.28C440.13 239.28 448.55 239.28 450.23 239.28C456.25 239.12 462.27 239.5 468.23 240.43C475.13 241.5 480.94 246.17 483.47 252.68C484.9 256.42 485.58 260.4 485.49 264.4C485.64 269.19 484.64 273.95 482.59 278.29C480.54 282.19 477.42 285.43 473.6 287.61C480.53 290.68 484.18 297.97 484.55 309.49C484.55 309.69 484.55 309.79 484.55 309.81C484.55 311.6 484.67 314.53 484.68 315.05C484.85 325.87 486.64 332.64 490.05 335.37C474.31 335.37 465.57 335.37 463.82 335.37C463.21 333.32 462.78 331.23 462.52 329.11C462.25 326.78 462.12 324.43 462.12 322.08C462.12 320.56 462.12 318.67 462.25 316.43C462.38 314.19 462.38 312.81 462.38 312.15C462.38 306.27 461.61 302.28 460.09 300.11C458.56 297.94 455.75 297.04 451.77 297.04C451.47 297.04 449.93 297.04 447.16 297.04L447.16 335.39L424.98 335.39ZM524.06 317.88C524.49 317.96 524.93 318.01 525.36 318.01C525.55 318.01 527.06 318.01 527.25 318.01C529.31 318.07 531.35 317.73 533.28 317.01C534.86 316.36 536.22 315.26 537.18 313.85C538.26 311.76 538.84 309.45 538.88 307.1C539.19 303.78 539.35 297.26 539.35 287.52C539.35 284.9 539.35 283.44 539.35 283.15C539.35 275.16 539.2 269.77 538.91 266.98C538.85 264.95 538.29 262.96 537.28 261.19C536.38 259.8 535.06 258.73 533.51 258.14C531.44 257.41 529.25 257.08 527.06 257.14C526.94 257.14 526.31 257.14 525.18 257.14L524.03 257.26C524.05 293.63 524.06 313.84 524.06 317.88ZM501.45 335.41L501.45 239.3C516.3 239.3 524.54 239.3 526.19 239.3C539.78 239.3 544.31 241.4 546.32 241.63C550.56 243.1 554.22 245.92 556.72 249.64C558.95 253.16 560.41 257.11 561 261.23C562.06 269.93 562.49 278.69 562.26 287.45C562.49 296.2 562.07 304.95 561 313.64C560.39 317.71 558.94 321.62 556.76 325.12C554.25 328.84 550.6 331.65 546.36 333.13C542 334.68 535.29 335.46 526.23 335.46L501.45 335.41ZM617.05 278.72C617.05 262.76 615.23 260.96 615.03 258.99C613.55 256.4 610.69 254.92 607.72 255.22C604.77 254.95 601.94 256.48 600.56 259.1C599.21 261.61 598.55 268.15 598.56 278.72C598.56 289.11 598.56 294.88 598.56 296.04C598.56 311.62 600.36 313.63 600.56 315.58C603.2 319.59 608.58 320.7 612.59 318.06C613.58 317.41 614.42 316.57 615.07 315.58C616.41 313.07 617.08 306.53 617.07 295.96C617.05 285.62 617.05 279.88 617.05 278.72ZM575.59 287.39C575.42 278.93 575.84 270.48 576.85 262.08C577.36 257.68 578.75 253.44 580.96 249.6C583.57 245.49 587.32 242.22 591.74 240.18C596.79 238 602.26 236.94 607.76 237.09C613.25 236.93 618.7 237.99 623.74 240.18C628.12 242.24 631.83 245.51 634.42 249.6C636.7 253.44 638.15 257.71 638.66 262.14C639.66 270.51 640.08 278.94 639.91 287.37C640.08 295.79 639.66 304.22 638.66 312.58C638.15 317.02 636.7 321.3 634.42 325.14C631.83 329.23 628.12 332.5 623.74 334.56C613.46 338.71 601.98 338.71 591.7 334.56C587.29 332.5 583.55 329.23 580.92 325.14C578.72 321.3 577.32 317.05 576.81 312.66C575.87 304.27 575.51 295.83 575.74 287.39C575.71 287.39 575.62 287.39 575.59 287.39Z" id="d1r5fH3L9A"></path><path d="M89.5 245.72L79.13 261.48L49.47 241.88L92.02 241.88L92.02 241.88L89.5 245.72Z" id="dTzqGn9xB"></path><path d="M63.15 316.41L40.91 301.73L3.88 277.23C3.88 265.92 3.88 259.64 3.88 258.39C3.88 258.1 3.88 257.82 3.88 257.56C3.88 257.56 3.88 257.56 3.88 257.56C3.88 257.42 3.88 257.31 3.88 257.18C3.88 257.18 3.88 257.18 3.88 257.18L3.88 256.82C3.88 256.82 3.88 256.82 3.88 256.82C3.88 256.69 3.88 256.56 3.88 256.44C3.88 256.44 3.88 256.44 3.88 256.44C3.88 256.31 3.88 256.2 3.88 256.07C3.88 256.07 3.88 256.07 3.88 256.07L3.88 255.71L3.88 255.71L3.88 255.35L3.88 255.35L3.88 255.03L3.88 255.03L3.88 254.73L3.88 254.64L3.88 254.33L3.88 254.33L3.88 254.03L3.88 253.94L4 253.62L4 253.62L4.11 253.3L4.11 253.18L4.22 252.86L4.22 252.86L4.32 252.62L4.32 252.43L4.32 252.22L4.32 252.07L4.32 251.88L4.32 251.7L4.32 251.51L4.43 251.3L4.43 251.21L4.56 250.96L4.56 250.85L4.69 250.62L4.69 250.51L4.82 250.3L4.96 250.09L5.05 249.94L5.05 249.94L5.52 249.28L5.52 249.28L5.67 249.1C5.67 249.03 5.67 248.99 5.67 248.98C5.89 248.71 6.11 248.43 6.35 248.15L6.35 248.15L6.46 248.02L59.23 282.92L69.37 289.61L58.34 306.35L68.48 306.35L63.15 316.41Z" id="c51mWBvDW7"></path><path d="M43.57 336.18L20.9 321.2L3.94 309.98L3.94 277.25L40.97 301.73L63.21 316.41L51.13 334.73L50.09 336.25L43.7 336.25L43.7 336.25L43.57 336.18Z" id="ff1JoWkpl"></path><path d="M79.98 275.57L69.84 275.57L79.13 261.48L49.47 241.88L25.31 241.88L10.93 244.91L10.84 244.91L10.84 244.91L10.84 244.91L10.84 244.91L10.84 244.91L10.84 244.91L10.57 245.1L10.57 245.1L9.72 245.8C9.72 245.8 9.72 245.8 9.72 245.8C9.33 246.14 8.97 246.51 8.61 246.89C8.61 246.89 8.61 246.89 8.61 246.89L8.48 247.04L8.48 247.04L61.25 281.94L71.39 288.63L79.98 275.57Z" id="h3edNpMu5B"></path><path d="M45.59 337.5L3.94 309.98L3.92 337.69L45.83 337.69L45.83 337.69L45.59 337.5Z" id="dcItJCvGc"></path><path d="M92.74 245.74C49.34 245.74 25.23 245.74 20.41 245.74C13.4 245.74 7.73 251.42 7.73 258.42C7.73 263.71 7.73 290.13 7.73 337.69L0 337.69C0 290.12 0 263.69 0 258.4C0 247.14 9.13 238.01 20.39 238.01C20.4 238.01 20.4 238.01 20.41 238.01C25.57 238.01 51.36 238.01 97.79 238.01L92.74 245.74Z" id="eOAT7pmb7"></path><path d="M13.63 337.69L67.86 255.41C55.42 255.41 48.51 255.41 47.13 255.41C34.41 255.41 31.21 260.36 29.44 260.91C26.06 264.57 24.39 271.03 24.39 280.27C24.39 280.54 24.39 281.89 24.39 284.34L21.13 284.34L21.13 252.3L82 252.3L27.7 334.73C56.6 334.73 72.66 334.73 75.87 334.73C88.65 334.73 92.93 328.84 94.83 328.19C98.95 323.83 101.01 317.14 101.01 308.12L101.01 306.01L103.84 306.01L103.84 337.69L13.63 337.69Z" id="f2wuAC44bD"></path><path d="M75.23 303.01L75.23 303.01L65.09 303.01L84.94 272.9L84.94 272.9L74.8 272.9L97.79 238.01L107.93 238.01L88.08 268.13L98.22 268.13L78.38 298.22L88.52 298.22L32.58 367.99L32.39 367.99L32.39 367.99L75.23 303.01Z" id="b25b1XVmxV"></path></defs><g><g><use xlink:href="#d1r5fH3L9A" opacity="1" fill="#dbdbdb" fill-opacity="1"></use><g><use xlink:href="#d1r5fH3L9A" opacity="1" fill-opacity="0" stroke="#000000" stroke-width="1" stroke-opacity="0"></use></g></g><g><use xlink:href="#dTzqGn9xB" opacity="1" fill="#dbdbdb" fill-opacity="1"></use><g><use xlink:href="#dTzqGn9xB" opacity="1" fill-opacity="0" stroke="#000000" stroke-width="1" stroke-opacity="0"></use></g></g><g><use xlink:href="#c51mWBvDW7" opacity="1" fill="#dbdbdb" fill-opacity="1"></use><g><use xlink:href="#c51mWBvDW7" opacity="1" fill-opacity="0" stroke="#000000" stroke-width="1" stroke-opacity="0"></use></g></g><g><use xlink:href="#ff1JoWkpl" opacity="1" fill="#dbdbdb" fill-opacity="1"></use><g><use xlink:href="#ff1JoWkpl" opacity="1" fill-opacity="0" stroke="#000000" stroke-width="1" stroke-opacity="0"></use></g></g><g><use xlink:href="#h3edNpMu5B" opacity="1" fill="#dbdbdb" fill-opacity="1"></use><g><use xlink:href="#h3edNpMu5B" opacity="1" fill-opacity="0" stroke="#000000" stroke-width="1" stroke-opacity="0"></use></g></g><g><use xlink:href="#dcItJCvGc" opacity="1" fill="#dbdbdb" fill-opacity="1"></use><g><use xlink:href="#dcItJCvGc" opacity="1" fill-opacity="0" stroke="#000000" stroke-width="1" stroke-opacity="0"></use></g></g><g><use xlink:href="#eOAT7pmb7" opacity="1" fill="#dbdbdb" fill-opacity="1"></use><g><use xlink:href="#eOAT7pmb7" opacity="1" fill-opacity="0" stroke="#000000" stroke-width="1" stroke-opacity="0"></use></g></g><g><use xlink:href="#f2wuAC44bD" opacity="1" fill="#dbdbdb" fill-opacity="1"></use><g><use xlink:href="#f2wuAC44bD" opacity="1" fill-opacity="0" stroke="#000000" stroke-width="1" stroke-opacity="0"></use></g></g><g><use xlink:href="#b25b1XVmxV" opacity="1" fill="#dbdbdb" fill-opacity="1"></use><g><use xlink:href="#b25b1XVmxV" opacity="1" fill-opacity="0" stroke="#000000" stroke-width="1" stroke-opacity="0"></use></g></g></g></svg>