<svg id="Livello_1" data-name="Livello 1" xmlns="http://www.w3.org/2000/svg" xmlns:xlink="http://www.w3.org/1999/xlink" viewBox="0 0 378.72 385.82"><defs><style>.cls-1{fill:url(#Sfumatura_senza_nome_30);}.cls-2{fill:none;stroke:#fff;stroke-miterlimit:10;}.cls-3{fill:#fff;}</style><linearGradient id="Sfumatura_senza_nome_30" x1="-286.52" y1="953.06" x2="161.51" y2="953.06" gradientTransform="matrix(0.78, 0.46, -0.51, 0.85, 738.99, -574.01)" gradientUnits="userSpaceOnUse"><stop offset="0" stop-color="#3aaa35"/><stop offset="0.22" stop-color="#2fac66"/><stop offset="0.41" stop-color="#00a19a"/><stop offset="0.61" stop-color="#009bdc"/><stop offset="0.8" stop-color="#1e6bb1"/><stop offset="1" stop-color="#2d2e83"/></linearGradient></defs><title>marchio-dielle-definitivo</title><path class="cls-1" d="M154.89,17.94A277.2,277.2,0,0,0,97.31,38.38C59.85,56.61,34.92,94.83,20,132.46-.39,183.78,18.14,251,42.14,298.29c22.43,44.25,62.72,88.25,113.73,97.08,1.46.25,2.92.47,4.39.66,33,4.24,64.83-3.2,97-9.25,29-5.46,57.84-12.8,84.1-26.83,36.18-19.32,48.13-59.14,48.6-98.08.53-43.21-13-82.48-35.78-118.89-10.53-16.8-22.33-32.76-34.19-48.64-9.06-12.13-20.41-23.88-30.19-36-9-11.1-14.9-28.28-26.35-36.77-12.34-9.15-34-9.53-48.87-10A230.67,230.67,0,0,0,154.89,17.94Z" transform="translate(-11.25 -11.46)"/><polyline class="cls-2" points="56.12 59.86 271.21 325.94 179.03 59.86 117.57 325.96 271.21 59.86 332.67 325.94 117.57 59.86 86.85 325.94"/><circle class="cls-3" cx="56.12" cy="59.87" r="5.04"/><circle class="cls-3" cx="117.7" cy="59.87" r="5.04"/><circle class="cls-3" cx="179.03" cy="59.87" r="5.04"/><circle class="cls-3" cx="271.53" cy="59.87" r="5.04"/><circle class="cls-3" cx="86.85" cy="325.95" r="5.04"/><circle class="cls-3" cx="117.7" cy="325.95" r="5.04"/><circle class="cls-3" cx="271.66" cy="325.95" r="5.04"/><circle class="cls-3" cx="332.67" cy="325.95" r="5.04"/><path class="cls-3" d="M223.34,204.43q0,9.67-4.06,15t-11.95,5.33h-10.2V184h10.26q7.83,0,11.89,5.39T223.34,204.43Zm-6.91,0a27,27,0,0,0-.66-6.34,14,14,0,0,0-1.88-4.49,8.05,8.05,0,0,0-2.88-2.68,7.61,7.61,0,0,0-3.62-.89H204.1v28.68h3.29a7.49,7.49,0,0,0,3.62-.89,8,8,0,0,0,2.88-2.68,14,14,0,0,0,1.88-4.46A26.34,26.34,0,0,0,216.43,204.43Z" transform="translate(-11.25 -11.46)"/><path class="cls-3" d="M235.09,224.76V184H242v40.78Z" transform="translate(-11.25 -11.46)"/><path class="cls-3" d="M255.48,224.76V184h18.26v6.11H262.1v10.82h10.77v5.65H262.1v12h12.21v6.16Z" transform="translate(-11.25 -11.46)"/><path class="cls-3" d="M285.77,224.76V184h7v34.39H304v6.39Z" transform="translate(-11.25 -11.46)"/><path class="cls-3" d="M313.65,224.76V184h7v34.39h11.23v6.39Z" transform="translate(-11.25 -11.46)"/><path class="cls-3" d="M341.53,224.76V184h18.26v6.11H348.15v10.82h10.77v5.65H348.15v12h12.21v6.16Z" transform="translate(-11.25 -11.46)"/></svg>