<svg id="Livello_1" data-name="Livello 1" xmlns="http://www.w3.org/2000/svg" viewBox="0 0 595.28 459.74">
<defs><style>.cls-1,.cls-3{fill:none;stroke:#fff;stroke-miterlimit:10;}.cls-2{fill:#fff;}.cls-3{stroke-width:8px;}</style></defs>
<title>MARCHIO BIANCO</title>
<polyline class="cls-1" points="181.28 70.8 396.37 336.88 304.19 70.8 242.73 336.89 396.37 70.8 457.83 336.88 242.73 70.8 212.01 336.88"/>
<circle class="cls-2" cx="181.28" cy="70.8" r="5.04"/><circle class="cls-2" cx="242.86" cy="70.8" r="5.04"/><circle class="cls-2" cx="304.19" cy="70.8" r="5.04"/>
<circle class="cls-2" cx="396.7" cy="70.8" r="5.04"/><circle class="cls-2" cx="212.01" cy="336.88" r="5.04"/><circle class="cls-2" cx="242.86" cy="336.88" r="5.04"/>
<circle class="cls-2" cx="396.82" cy="336.88" r="5.04"/><circle class="cls-2" cx="457.83" cy="336.88" r="5.04"/>
<path class="cls-2" d="M317.25,203.9q0,9.67-4.06,15t-11.95,5.33H291V183.45h10.25q7.84,0,11.9,5.38C315.9,192.43,317.25,197.44,317.25,203.9Zm-6.91,0a27,27,0,0,0-.66-6.34,14,14,0,0,0-1.88-4.49,8,8,0,0,0-2.88-2.68,7.5,7.5,0,0,0-3.63-.89H298v28.68h3.28a7.62,7.62,0,0,0,3.63-.89,8.05,8.05,0,0,0,2.88-2.68,14,14,0,0,0,1.88-4.46A26.34,26.34,0,0,0,310.34,203.9Z"/>
<path class="cls-2" d="M329,224.23V183.45h6.91v40.78Z"/><path class="cls-2" d="M349.39,224.23V183.45h18.26v6.1H356v10.83h10.77V206H356v12h12.21v6.16Z"/>
<path class="cls-2" d="M379.68,224.23V183.45h7v34.38h11.24v6.4Z"/>
<path class="cls-2" d="M407.56,224.23V183.45h7v34.38h11.23v6.4Z"/>
<path class="cls-2" d="M435.44,224.23V183.45H453.7v6.1H442.06v10.83h10.77V206H442.06v12h12.21v6.16Z"/>
<path class="cls-3" d="M374.51,47.2c57.68,14.48,103.73,46.31,129.63,111.26,19.86,49.81,36.59,122.68,6.73,172.09-78.78,130.33-285.28,76.92-365.67-20.87C104.64,260.34,82.52,176.1,106.12,115c28.63-74.13,131.22-81.29,198.36-77.6C329.18,38.73,352.68,41.73,374.51,47.2Z"/>
</svg>